<?xml version="1.0" encoding="utf-8"?>
<!-- Generator: Adobe Illustrator 16.0.0, SVG Export Plug-In . SVG Version: 6.00 Build 0)  -->
<!DOCTYPE svg PUBLIC "-//W3C//DTD SVG 1.1//EN" "http://www.w3.org/Graphics/SVG/1.1/DTD/svg11.dtd">
<svg version="1.1" id="Layer_1" xmlns="http://www.w3.org/2000/svg" xmlns:xlink="http://www.w3.org/1999/xlink" x="0px" y="0px"
	 width="926.021px" height="860.729px" viewBox="0 0 926.021 860.729" enable-background="new 0 0 926.021 860.729"
	 xml:space="preserve">
<g id="Druckebene">
</g>
<g id="Stanzform">
	<g display="none">
		<g display="inline">
			<polyline fill="none" stroke="#312F81" stroke-miterlimit="10" points="339.469,1.094 337.222,0 336.207,2.285 			"/>
			
				<line fill="none" stroke="#312F81" stroke-miterlimit="10" stroke-dasharray="5.0029,5.0029" x1="334.175" y1="6.856" x2="2.031" y2="754.36"/>
			<polyline fill="none" stroke="#312F81" stroke-miterlimit="10" points="1.015,756.646 0,758.931 2.28,759.955 			"/>
			<path fill="none" stroke="#312F81" stroke-miterlimit="10" stroke-dasharray="4.977,4.977" d="M6.82,761.995l6.054,2.72
				c74.695,33.563,153.279,58.716,233.577,74.759c70.776,14.104,143.257,21.255,215.426,21.255l0.792-0.002l0.451,0.002
				c74.194,0,148.671-7.526,221.365-22.37c78.822-16.099,155.755-40.873,228.652-73.644l8.331-3.745"/>
			<polyline fill="none" stroke="#312F81" stroke-miterlimit="10" points="923.74,759.95 926.021,758.925 925.004,756.641 			"/>
			
				<line fill="none" stroke="#312F81" stroke-miterlimit="10" stroke-dasharray="5.0017,5.0017" x1="922.97" y1="752.071" x2="590.42" y2="4.963"/>
			<polyline fill="none" stroke="#312F81" stroke-miterlimit="10" points="589.403,2.678 588.387,0.394 586.126,1.461 			"/>
			<path fill="none" stroke="#312F81" stroke-miterlimit="10" stroke-dasharray="5.03,5.03" d="M581.577,3.608l-6.296,2.972
				c-34.922,16.485-73.805,25.199-112.441,25.2c-18.036,0-36.133-1.868-53.885-5.572c-20.26-4.081-39.954-10.737-58.537-19.784
				l-8.688-4.229"/>
		</g>
	</g>
	<path fill="#F9AA8F" enable-background="new    " d="M588.387,0.394l337.636,758.531c0,0-32.305,14.943-53.865,23.82
		c-21.563,8.877-54.795,19.642-54.795,19.642L544.96,18.628c0,0,13.9-4.807,22.459-8.496C575.977,6.443,588.387,0.394,588.387,0.394
		z"/>
</g>
</svg>
