<?xml version="1.0" encoding="utf-8"?>
<!-- Generator: Adobe Illustrator 16.0.0, SVG Export Plug-In . SVG Version: 6.00 Build 0)  -->
<!DOCTYPE svg PUBLIC "-//W3C//DTD SVG 1.1//EN" "http://www.w3.org/Graphics/SVG/1.1/DTD/svg11.dtd">
<svg version="1.1" xmlns="http://www.w3.org/2000/svg" xmlns:xlink="http://www.w3.org/1999/xlink" x="0px" y="0px"
	 width="926.021px" height="860.728px" viewBox="0 0 926.021 860.728" enable-background="new 0 0 926.021 860.728"
	 xml:space="preserve">
<g id="Druckebene">
</g>
<g id="Stanzform">
	<path fill="#FFFEFE" d="M575.281,6.581c-34.922,16.485-73.803,25.199-112.441,25.2c-18.036,0-36.133-1.868-53.885-5.572
		c-20.26-4.081-39.954-10.737-58.537-19.784L337.222,0L0,758.931l12.875,5.784c74.695,33.563,153.279,58.716,233.577,74.759
		c70.778,14.103,143.257,21.254,215.426,21.254l0.792-0.001l0.451,0.001c74.194,0,148.671-7.527,221.365-22.371
		c78.824-16.097,155.755-40.873,228.654-73.642l12.881-5.79L588.387,0.394L575.281,6.581z"/>
	<path display="none" opacity="0.25" fill="#F9AA8F" d="M588.387,0.394l337.634,758.531c0,0-32.303,14.943-53.865,23.82
		c-21.562,8.877-54.795,19.642-54.795,19.642L544.96,18.628c0,0,13.9-4.807,22.459-8.496C575.977,6.443,588.387,0.394,588.387,0.394
		z"/>
</g>
</svg>
