<?xml version="1.0" encoding="utf-8"?>
<!-- Generator: Adobe Illustrator 16.0.0, SVG Export Plug-In . SVG Version: 6.00 Build 0)  -->
<!DOCTYPE svg PUBLIC "-//W3C//DTD SVG 1.1//EN" "http://www.w3.org/Graphics/SVG/1.1/DTD/svg11.dtd">
<svg version="1.1" id="Layer_1" xmlns="http://www.w3.org/2000/svg" xmlns:xlink="http://www.w3.org/1999/xlink" x="0px" y="0px"
	 width="926.021px" height="860.729px" viewBox="0 0 926.021 860.729" enable-background="new 0 0 926.021 860.729"
	 xml:space="preserve">
<g>
	<path fill="#FFFEFE" d="M461.828,840.729c-70.808,0-141.972-7.021-211.467-20.869c-76.917-15.367-152.246-39.255-223.989-71.023
		L347.117,26.985c18.477,8.478,37.905,14.801,57.841,18.821c19.033,3.965,38.506,5.976,57.882,5.976
		c39.584-0.001,79.408-8.503,115.565-24.629l321.233,721.686c-69.973,30.992-143.673,54.509-219.154,69.924
		c-71.365,14.572-144.475,21.963-217.306,21.967H461.828z"/>
	<g>
		<path fill="none" stroke="#312783" stroke-miterlimit="10" d="M28.658,749.846c-0.763-0.336-1.525-0.673-2.287-1.01l1.015-2.284"
			/>
		
			<line fill="none" stroke="#312783" stroke-miterlimit="10" stroke-dasharray="4.9994,4.9994" x1="29.417" y1="741.982" x2="345.086" y2="31.554"/>
		<path fill="none" stroke="#312783" stroke-miterlimit="10" d="M346.102,29.27l1.015-2.285c0.758,0.348,1.517,0.692,2.278,1.032"/>
		<path fill="none" stroke="#312783" stroke-miterlimit="10" stroke-dasharray="4.9627,4.9627" d="M353.945,30.001
			c16.414,6.975,33.518,12.276,51.013,15.804c19.033,3.965,38.506,5.976,57.882,5.976c37.927-0.001,76.075-7.806,111.007-22.645"/>
		<path fill="none" stroke="#312783" stroke-miterlimit="10" d="M576.122,28.158c0.763-0.332,1.523-0.667,2.283-1.006l1.017,2.284"
			/>
		
			<line fill="none" stroke="#312783" stroke-miterlimit="10" stroke-dasharray="4.9997,4.9997" x1="581.455" y1="34.003" x2="897.605" y2="744.271"/>
		<path fill="none" stroke="#312783" stroke-miterlimit="10" d="M898.622,746.554l1.017,2.284c-0.762,0.338-1.524,0.674-2.287,1.01"
			/>
		<path fill="none" stroke="#312783" stroke-miterlimit="10" stroke-dasharray="4.9937,4.9937" d="M892.776,751.849
			c-67.923,29.508-139.273,52.001-212.292,66.913c-71.365,14.572-144.475,21.963-217.306,21.967h-1.351
			c-70.808,0-141.972-7.021-211.467-20.869c-75.285-15.041-149.047-38.244-219.416-69.011"/>
	</g>
</g>
</svg>
