<svg xmlns="http://www.w3.org/2000/svg" width="27" height="27">
  <defs>
    <clipPath id="a">
      <rect data-name="Rectangle 8644" width="27" height="27" rx="6" transform="translate(618 156)"/>
    </clipPath>
  </defs>
  <g transform="translate(-618 -156)" clip-path="url(#a)">
    <rect data-name="Rectangle 9" width="27" height="27" rx="6" transform="translate(618 156)"/>
    <path data-name="Path 15457" d="M638.176 163.528a.526.526 0 0 0-.638.128l-1.185 1.175a7.075 7.075 0 0 0-2.229-1.426 6.906 6.906 0 0 0-5.309.05 6.916 6.916 0 0 0-3.728 3.728 6.912 6.912 0 0 0 0 5.432 6.915 6.915 0 0 0 3.728 3.728 6.81 6.81 0 0 0 2.716.553 6.95 6.95 0 0 0 2.981-.661 6.843 6.843 0 0 0 2.406-1.864.3.3 0 0 0 .068-.205.253.253 0 0 0-.087-.187l-1.248-1.254a.351.351 0 0 0-.228-.082.284.284 0 0 0-.21.109 4.637 4.637 0 0 1-5.491 1.444 4.621 4.621 0 0 1-2.491-2.488 4.618 4.618 0 0 1 0-3.618 4.622 4.622 0 0 1 2.491-2.488 4.546 4.546 0 0 1 1.809-.369 4.529 4.529 0 0 1 3.181 1.249l-1.258 1.257a.518.518 0 0 0-.128.629.545.545 0 0 0 .538.365h4.083a.591.591 0 0 0 .584-.584v-4.083a.545.545 0 0 0-.355-.538Z" fill="#fff"/>
  </g>
</svg>