<?xml version="1.0" encoding="utf-8"?>
<!-- Generator: Adobe Illustrator 16.0.0, SVG Export Plug-In . SVG Version: 6.00 Build 0)  -->
<!DOCTYPE svg PUBLIC "-//W3C//DTD SVG 1.1//EN" "http://www.w3.org/Graphics/SVG/1.1/DTD/svg11.dtd">
<svg version="1.1" id="Layer_1" xmlns="http://www.w3.org/2000/svg" xmlns:xlink="http://www.w3.org/1999/xlink" x="0px" y="0px"
	 width="122.352px" height="66.418px" viewBox="741.909 67.092 122.352 66.418"
	 enable-background="new 741.909 67.092 122.352 66.418" xml:space="preserve">
<g>
	<g>
		<path d="M745.106,130.002c-0.061,1.046-0.492,1.7-1.26,1.7c-0.865,0-1.395-0.714-1.395-2.678s0.527-2.678,1.395-2.678
			c0.783,0,1.199,0.586,1.199,1.411h0.543c0-0.995-0.51-1.869-1.742-1.869c-1.24,0-1.938,0.959-1.938,3.136
			c0,2.176,0.697,3.136,1.938,3.136c1.09,0,1.727-0.772,1.803-2.158H745.106L745.106,130.002z M749.288,132.058h0.543v-6.068h-0.543
			v2.584h-2.373v-2.584h-0.543v6.068h0.543v-3.026h2.373V132.058L749.288,132.058z M750.801,129.416v0.458h1.844v-0.458H750.801
			L750.801,129.416z M756.766,127.452c-0.016-0.825-0.518-1.41-1.469-1.41c-1.445,0-1.836,1.249-1.836,3.22
			c0,1.896,0.398,2.898,1.76,2.898c1.156,0,1.674-0.917,1.674-2.057c0-1.105-0.535-1.869-1.58-1.869
			c-0.639,0-1.098,0.364-1.293,0.985l-0.018-0.017c0.025-1.988,0.436-2.737,1.268-2.737c0.596,0,0.928,0.4,0.951,0.987H756.766
			L756.766,127.452z M754.106,130.197c0-0.774,0.299-1.539,1.123-1.539c0.834,0,1.121,0.765,1.121,1.539
			c0,0.772-0.287,1.539-1.121,1.539C754.405,131.736,754.106,130.971,754.106,130.197L754.106,130.197z M758.11,129.101
			c0-1.93,0.322-2.636,1.146-2.636c0.826,0,1.148,0.706,1.148,2.636s-0.322,2.636-1.148,2.636
			C758.432,131.737,758.11,131.031,758.11,129.101L758.11,129.101z M757.567,129.101c0,1.777,0.32,3.06,1.689,3.06
			s1.691-1.283,1.691-3.06s-0.322-3.059-1.691-3.059S757.567,127.324,757.567,129.101L757.567,129.101z M762.241,127.927
			c0.033-1.003,0.416-1.462,1.105-1.462c0.619,0,1.063,0.434,1.063,1.233c0,0.578-0.229,0.986-0.832,1.497l-0.646,0.544
			c-0.809,0.68-1.258,1.326-1.258,2.32h3.33V131.6h-2.754c0.094-0.629,0.426-1.02,1.055-1.539l0.656-0.536
			c0.771-0.638,0.992-1.122,0.992-1.854c0-1.147-0.738-1.631-1.555-1.631c-1.131,0-1.684,0.721-1.699,1.886L762.241,127.927
			L762.241,127.927z M766.194,126.143l-0.35,3.084h0.51c0.17-0.484,0.588-0.697,1.037-0.697c0.809,0,1.174,0.646,1.174,1.479
			c0,1.131-0.459,1.726-1.182,1.726s-1.115-0.536-1.115-1.216h-0.543c0,1.054,0.662,1.64,1.6,1.64c1.182,0,1.783-0.857,1.783-2.065
			c0-1.335-0.662-1.989-1.59-1.989c-0.439,0-0.936,0.17-1.164,0.611l-0.018-0.017l0.264-2.1h2.229v-0.458h-2.635V126.143z
			 M771.973,132.058h0.543v-5.287h0.02l2.32,5.287h0.73v-6.068h-0.543v5.287h-0.018l-2.322-5.287h-0.73V132.058L771.973,132.058z
			 M778.825,130.563c-0.084,0.791-0.416,1.174-0.953,1.174c-0.5,0-0.961-0.4-0.961-1.701v-0.212h2.467v-0.188
			c0-1.505-0.451-2.192-1.453-2.192c-0.996,0-1.557,0.79-1.557,2.354c0,1.701,0.561,2.363,1.514,2.363
			c0.852,0,1.377-0.637,1.453-1.598L778.825,130.563L778.825,130.563z M776.911,129.399c0.018-1.123,0.332-1.531,0.961-1.531
			c0.631,0,0.945,0.408,0.963,1.531H776.911L776.911,129.399z M780.176,130.954c0,0.85,0.467,1.206,1.156,1.206
			c0.459,0,0.9-0.229,1.156-0.73h0.018v0.628h0.457v-4.512h-0.51v3.034c0,0.698-0.408,1.157-0.986,1.157
			c-0.535,0-0.781-0.281-0.781-1.012v-3.179h-0.51V130.954L780.176,130.954z M786.331,132.058h0.457v-6.068h-0.508v2.234h-0.018
			c-0.111-0.476-0.492-0.781-1.055-0.781c-0.996,0-1.445,0.798-1.445,2.353c0,1.565,0.449,2.363,1.445,2.363
			c0.535,0,0.969-0.331,1.105-0.849h0.016v0.748H786.331z M784.307,129.798c0-1.667,0.477-1.93,0.986-1.93
			c0.52,0,0.986,0.264,0.986,1.93c0,1.675-0.469,1.938-0.986,1.938C784.782,131.736,784.307,131.473,784.307,129.798
			L784.307,129.798z M787.487,129.798c0,1.573,0.559,2.362,1.555,2.362c0.994,0,1.555-0.79,1.555-2.362
			c0-1.564-0.561-2.354-1.555-2.354C788.045,127.444,787.487,128.233,787.487,129.798L787.487,129.798z M788.03,129.798
			c0-1.437,0.441-1.93,1.012-1.93s1.012,0.493,1.012,1.93c0,1.445-0.441,1.938-1.012,1.938S788.03,131.243,788.03,129.798
			L788.03,129.798z M791.344,132.058h0.51v-2.822c0-0.875,0.527-1.284,1.09-1.284c0.074,0,0.16,0.009,0.244,0.025v-0.509
			c-0.059-0.017-0.117-0.025-0.178-0.025c-0.525,0-0.943,0.305-1.139,0.806h-0.02v-0.704h-0.508V132.058L791.344,132.058z
			 M793.897,132.058h0.508v-4.088h0.799v-0.424h-0.799v-0.536c0-0.519,0.18-0.664,0.553-0.664c0.094,0,0.17,0.008,0.246,0.025
			v-0.424c-0.094-0.017-0.17-0.025-0.322-0.025c-0.857,0-0.984,0.466-0.984,1.087v0.536h-0.621v0.424h0.621V132.058L793.897,132.058
			z"/>
		<path d="M742.012,121.058h0.543v-5.559h0.018l1.572,5.559h0.512l1.572-5.559h0.018v5.559h0.543v-6.068h-0.893l-1.463,5.389h-0.018
			l-1.463-5.389h-0.941V121.058L742.012,121.058z M747.571,118.798c0,1.573,0.561,2.362,1.555,2.362c0.996,0,1.555-0.79,1.555-2.362
			c0-1.564-0.559-2.354-1.555-2.354C748.131,116.444,747.571,117.233,747.571,118.798L747.571,118.798z M748.114,118.798
			c0-1.437,0.441-1.93,1.012-1.93s1.012,0.493,1.012,1.93c0,1.445-0.441,1.938-1.012,1.938S748.114,120.243,748.114,118.798
			L748.114,118.798z M751.192,118.798c0,1.573,0.561,2.362,1.555,2.362c0.996,0,1.555-0.79,1.555-2.362
			c0-1.564-0.559-2.354-1.555-2.354C751.752,116.444,751.192,117.233,751.192,118.798L751.192,118.798z M751.735,118.798
			c0-1.437,0.441-1.93,1.012-1.93s1.012,0.493,1.012,1.93c0,1.445-0.441,1.938-1.012,1.938S751.735,120.243,751.735,118.798
			L751.735,118.798z M756.479,119.095c0.451,0.179,0.611,0.434,0.611,0.833c0,0.501-0.348,0.808-0.893,0.808
			c-0.578,0-0.867-0.34-0.867-1.003v-0.119h-0.51v0.145c0,1.021,0.459,1.402,1.385,1.402c0.953,0,1.395-0.568,1.395-1.342
			c0-0.493-0.229-0.918-0.842-1.147l-0.738-0.281c-0.512-0.196-0.613-0.442-0.613-0.757c0-0.451,0.23-0.765,0.826-0.765
			c0.467,0,0.738,0.247,0.738,0.833v0.127h0.51v-0.127c0-0.825-0.391-1.257-1.24-1.257c-0.766,0-1.342,0.373-1.342,1.299
			c0,0.451,0.229,0.825,0.865,1.071L756.479,119.095L756.479,119.095z"/>
		<path d="M741.926,110.058h2.107c1.691,0,2.006-0.968,2.006-1.682c0-1.242-0.67-1.437-1.121-1.505v-0.017
			c0.578-0.11,0.951-0.663,0.951-1.369c0-1.011-0.688-1.495-1.725-1.495h-2.219V110.058L741.926,110.058z M743.354,105.043h0.4
			c0.52,0,0.689,0.34,0.689,0.655c0,0.434-0.205,0.714-0.699,0.714h-0.391V105.043L743.354,105.043z M743.354,107.364h0.461
			c0.441,0,0.748,0.255,0.748,0.851c0,0.425-0.195,0.791-0.773,0.791h-0.436V107.364L743.354,107.364z M750.391,105.461h-1.375
			v3.009c0,0.451-0.229,0.655-0.492,0.655c-0.256,0-0.4-0.196-0.4-0.527v-3.136h-1.377v3.442c0,0.883,0.416,1.274,1.199,1.274
			c0.51,0,0.91-0.255,1.104-0.663h0.018v0.543h1.326v-4.597H750.391z M753.53,106.081h-0.018c-0.162-0.417-0.469-0.739-1.09-0.739
			c-1.197,0-1.342,1.266-1.342,2.354c0,1.267,0.297,2.252,1.291,2.252c0.467,0,0.902-0.153,1.088-0.679h0.018v0.28
			c0,0.875-0.094,1.173-0.553,1.173c-0.145,0-0.256-0.034-0.34-0.094c-0.076-0.059-0.119-0.153-0.146-0.28h-1.273
			c0,0.688,0.391,1.274,1.727,1.274c1.453,0,1.912-0.688,1.912-1.726v-4.436h-1.273V106.081L753.53,106.081z M752.458,107.679
			c0-0.757,0.068-1.284,0.52-1.284c0.398,0,0.502,0.4,0.502,1.242c0,1.038-0.145,1.31-0.52,1.31
			C752.584,108.946,752.458,108.64,752.458,107.679L752.458,107.679z M756.766,106.879c0.01-0.405,0.119-0.638,0.504-0.638
			c0.307,0,0.434,0.181,0.434,0.465c0,0.35-0.076,0.418-0.494,0.528c-0.383,0.102-0.893,0.187-1.23,0.373
			c-0.34,0.186-0.563,0.635-0.563,1.169c0,0.992,0.451,1.4,1.225,1.4c0.459,0,0.895-0.238,1.08-0.646h0.018
			c0.008,0.178,0.025,0.365,0.076,0.526h1.324c-0.16-0.204-0.16-0.645-0.16-0.993v-2.358c0-0.975-0.502-1.365-1.633-1.365
			c-0.568,0-0.961,0.076-1.283,0.297c-0.322,0.221-0.51,0.604-0.518,1.241L756.766,106.879L756.766,106.879z M756.741,108.642
			c0-0.254,0.068-0.398,0.213-0.508c0.129-0.102,0.314-0.11,0.75-0.339c0,0.186-0.01,0.423-0.01,0.805
			c0,0.458-0.264,0.627-0.553,0.627C756.885,109.226,756.741,109.006,756.741,108.642L756.741,108.642z M759.819,110.058h1.377
			v-3.009c0-0.451,0.229-0.655,0.492-0.655c0.256,0,0.4,0.195,0.4,0.527v3.136h1.375v-3.442c0-0.883-0.416-1.274-1.197-1.274
			c-0.51,0-0.908,0.255-1.105,0.662h-0.018v-0.543h-1.324V110.058L759.819,110.058z M766.493,107.764
			c0,1.131-0.086,1.514-0.512,1.514c-0.408,0-0.527-0.4-0.527-1.522c0-1.114,0.119-1.514,0.527-1.514
			C766.407,106.242,766.493,106.625,766.493,107.764L766.493,107.764z M765.973,110.177c1.59,0,1.896-1.053,1.896-2.431
			s-0.213-2.405-1.896-2.405c-1.59,0-1.895,1.053-1.895,2.431S764.29,110.177,765.973,110.177L765.973,110.177z M773.256,107.798
			h-1.035l0.5-2.704h0.018L773.256,107.798L773.256,107.798z M770.325,110.058h1.479l0.213-1.156h1.453l0.223,1.156h1.479
			l-1.514-6.068h-1.783L770.325,110.058L770.325,110.058z M779.42,105.834c0-0.688-0.076-1.963-1.92-1.963
			c-2.021,0-2.158,1.292-2.158,3.281c0,1.896,0.254,3.025,1.775,3.025c0.553,0,1.088-0.153,1.309-0.696h0.02l0.033,0.577h0.977
			v-3.254h-1.996v0.951h0.672v0.195c0,0.834-0.17,1.276-0.656,1.276c-0.568,0-0.654-0.536-0.654-2.193
			c0-1.616,0.068-2.211,0.654-2.211c0.527,0,0.57,0.621,0.57,1.012H779.42L779.42,105.834z"/>
		<path d="M805.792,131.947h0.51v-4.513h-0.51V131.947L805.792,131.947z M805.792,126.745h0.51v-0.866h-0.51V126.745
			L805.792,126.745z M807.321,131.947h0.51v-3.035c0-0.697,0.4-1.156,0.994-1.156c0.52,0,0.773,0.306,0.773,0.927v3.264h0.51v-3.409
			c0-0.85-0.467-1.206-1.154-1.206c-0.459,0-0.902,0.229-1.156,0.73h-0.018v-0.628h-0.459V131.947L807.321,131.947z
			 M811.282,131.947h0.51v-4.088h0.799v-0.424h-0.799v-0.536c0-0.519,0.178-0.664,0.553-0.664c0.094,0,0.17,0.009,0.246,0.026
			v-0.424c-0.094-0.017-0.17-0.025-0.322-0.025c-0.857,0-0.984,0.467-0.984,1.088v0.536h-0.621v0.424h0.621v4.087H811.282z
			 M812.94,129.686c0,1.573,0.559,2.363,1.555,2.363c0.994,0,1.555-0.79,1.555-2.363c0-1.564-0.561-2.354-1.555-2.354
			C813.499,127.332,812.94,128.122,812.94,129.686L812.94,129.686z M813.483,129.686c0-1.437,0.439-1.93,1.012-1.93
			c0.568,0,1.012,0.494,1.012,1.93c0,1.445-0.441,1.938-1.012,1.938C813.924,131.625,813.483,131.131,813.483,129.686
			L813.483,129.686z M818.37,129.5c0-0.808,0.654-2.015,1.572-2.015c0.51,0,0.73,0.263,0.73,0.816c0,0.774-0.662,2.066-1.572,2.066
			C818.59,130.367,818.37,130.018,818.37,129.5L818.37,129.5z M820.954,127.765h-0.018c-0.188-0.518-0.553-0.705-0.951-0.705
			c-1.217,0-2.074,1.308-2.074,2.482c0,0.774,0.459,1.249,1.123,1.249c0.467,0,0.807-0.195,1.199-0.577h0.016
			c-0.008,0.398,0.254,0.577,0.578,0.577c0.918,0,2.014-1.096,2.014-2.405c0-1.512-1.316-2.608-2.965-2.608
			c-1.82,0-3.307,1.394-3.307,3.136c0,1.717,1.428,3.136,3.307,3.136c1.154,0,2.27-0.594,2.846-1.546h-0.51
			c-0.459,0.722-1.42,1.173-2.336,1.173c-1.617,0-2.883-1.233-2.883-2.763c0-1.471,1.207-2.763,2.883-2.763
			c1.316,0,2.541,0.876,2.541,2.21c0,0.884-0.758,2.058-1.514,2.058c-0.146,0-0.23-0.085-0.23-0.212
			c0-0.136,0.051-0.323,0.111-0.501l0.867-2.5h-0.484L820.954,127.765L820.954,127.765z M823.547,131.947h0.457V131.2h0.018
			c0.137,0.518,0.57,0.849,1.105,0.849c0.994,0,1.445-0.798,1.445-2.363c0-1.556-0.451-2.354-1.445-2.354
			c-0.561,0-0.943,0.306-1.055,0.781h-0.018v-2.234h-0.51v6.068H823.547z M824.055,129.686c0-1.667,0.469-1.93,0.986-1.93
			c0.512,0,0.988,0.264,0.988,1.93c0,1.675-0.479,1.938-0.988,1.938C824.524,131.625,824.055,131.361,824.055,129.686
			L824.055,129.686z M827.372,130.843c0,0.85,0.467,1.206,1.156,1.206c0.459,0,0.9-0.229,1.154-0.73h0.018v0.628h0.459v-4.513h-0.51
			v3.034c0,0.698-0.408,1.157-0.986,1.157c-0.535,0-0.781-0.28-0.781-1.011v-3.179h-0.51V130.843L827.372,130.843z M833.475,128.13
			h-0.018c-0.162-0.51-0.561-0.798-1.055-0.798c-0.994,0-1.443,0.798-1.443,2.354c0,1.803,0.695,2.261,1.393,2.261
			c0.469,0,0.895-0.254,1.055-0.807h0.018v0.713c0,0.799-0.332,1.233-0.953,1.233c-0.449,0-0.85-0.255-0.85-0.681h-0.51
			c0.01,0.646,0.467,1.104,1.344,1.104c1.02,0,1.479-0.637,1.479-1.886v-4.19h-0.459V128.13L833.475,128.13z M831.502,129.635
			c0-1.437,0.355-1.879,0.961-1.879c0.604,0,0.961,0.442,0.961,1.879c0,1.445-0.357,1.887-0.961,1.887
			C831.858,131.522,831.502,131.081,831.502,129.635L831.502,129.635z M835.334,128.768c0-0.649,0.264-1.012,0.867-1.012
			c0.461,0,0.783,0.203,0.783,0.776c0,0.526-0.076,0.611-0.436,0.713l-0.961,0.273c-0.637,0.179-0.908,0.657-0.908,1.254
			c0,0.785,0.357,1.277,1.146,1.277c0.502,0,0.961-0.17,1.166-0.765h0.018v0.154c0,0.467,0.254,0.56,0.652,0.56
			c0.068,0,0.145-0.017,0.238-0.051v-0.373h-0.146c-0.178,0-0.262-0.12-0.262-0.375v-2.675c0-0.708-0.34-1.191-1.275-1.191
			c-0.953,0-1.393,0.517-1.393,1.436L835.334,128.768L835.334,128.768z M836.985,130.346c0,0.81-0.426,1.279-1.047,1.279
			c-0.441,0-0.715-0.358-0.715-0.887c0-0.538,0.266-0.802,0.773-0.938l0.426-0.111c0.205-0.051,0.494-0.145,0.545-0.298h0.018
			V130.346L836.985,130.346z M838.54,131.947h0.51v-3.035c0-0.697,0.4-1.156,0.996-1.156c0.518,0,0.773,0.306,0.773,0.927v3.264
			h0.508v-3.409c0-0.85-0.465-1.206-1.154-1.206c-0.459,0-0.902,0.229-1.156,0.73h-0.018v-0.628h-0.459V131.947L838.54,131.947z
			 M842.077,129.686c0,1.573,0.561,2.363,1.555,2.363s1.557-0.79,1.557-2.363c0-1.564-0.563-2.354-1.557-2.354
			S842.077,128.122,842.077,129.686L842.077,129.686z M842.62,129.686c0-1.437,0.441-1.93,1.012-1.93s1.014,0.494,1.014,1.93
			c0,1.445-0.443,1.938-1.014,1.938C843.063,131.625,842.62,131.131,842.62,129.686L842.62,129.686z M846.172,131.947h0.578v-0.866
			h-0.578V131.947L846.172,131.947z M850.176,130.448c-0.084,0.793-0.416,1.177-0.936,1.177c-0.477,0-0.961-0.23-0.961-1.936
			c0-1.595,0.459-1.933,1.012-1.933c0.545,0,0.826,0.312,0.885,1.012h0.51c-0.051-0.918-0.543-1.436-1.395-1.436
			c-0.994,0-1.555,0.787-1.555,2.348c0,1.706,0.561,2.369,1.514,2.369c0.832,0,1.359-0.637,1.436-1.601H850.176L850.176,130.448z
			 M851.196,129.686c0,1.573,0.561,2.363,1.557,2.363c0.994,0,1.555-0.79,1.555-2.363c0-1.564-0.561-2.354-1.555-2.354
			C851.756,127.332,851.196,128.122,851.196,129.686L851.196,129.686z M851.739,129.686c0-1.437,0.441-1.93,1.014-1.93
			c0.568,0,1.012,0.494,1.012,1.93c0,1.445-0.441,1.938-1.012,1.938C852.182,131.625,851.739,131.131,851.739,129.686
			L851.739,129.686z M855.09,131.947h0.508v-3.035c0-0.697,0.408-1.156,0.92-1.156c0.459,0,0.705,0.281,0.705,0.816v3.375h0.51
			v-3.035c0-0.697,0.408-1.156,0.918-1.156c0.459,0,0.707,0.281,0.707,0.816v3.375h0.508v-3.451c0-0.807-0.414-1.164-1.045-1.164
			c-0.578,0-0.943,0.289-1.146,0.79h-0.018c-0.068-0.458-0.398-0.79-0.943-0.79c-0.502,0-0.91,0.229-1.146,0.73h-0.018v-0.628
			h-0.459V131.947L855.09,131.947z"/>
		<path d="M805.741,120.947h0.543v-2.941h2.303v-0.458h-2.303v-2.211h2.465v-0.458h-3.008V120.947L805.741,120.947z
			 M809.793,117.768c0-0.649,0.264-1.012,0.867-1.012c0.461,0,0.783,0.203,0.783,0.776c0,0.526-0.076,0.611-0.436,0.713
			l-0.961,0.273c-0.637,0.179-0.908,0.657-0.908,1.254c0,0.785,0.357,1.277,1.146,1.277c0.502,0,0.961-0.17,1.166-0.765h0.018v0.154
			c0,0.467,0.254,0.56,0.652,0.56c0.068,0,0.145-0.017,0.238-0.051v-0.373h-0.145c-0.18,0-0.264-0.12-0.264-0.375v-2.675
			c0-0.708-0.34-1.191-1.275-1.191c-0.951,0-1.393,0.517-1.393,1.436L809.793,117.768L809.793,117.768z M811.444,119.346
			c0,0.81-0.426,1.279-1.047,1.279c-0.441,0-0.715-0.358-0.715-0.887c0-0.538,0.266-0.802,0.773-0.938l0.426-0.111
			c0.205-0.051,0.494-0.145,0.545-0.298h0.018V119.346L811.444,119.346z M815.022,120.947h0.576l-1.215-2.329l1.164-2.184h-0.578
			l-0.893,1.785l-0.893-1.785h-0.576l1.162,2.184l-1.215,2.329h0.578l0.943-1.938L815.022,120.947L815.022,120.947z
			 M818.583,117.989c0-1.93,0.324-2.636,1.148-2.636s1.146,0.706,1.146,2.636c0,1.93-0.322,2.635-1.146,2.635
			C818.907,120.625,818.583,119.919,818.583,117.989L818.583,117.989z M818.04,117.989c0,1.777,0.322,3.06,1.691,3.06
			c1.367,0,1.689-1.283,1.689-3.06c0-1.777-0.322-3.06-1.689-3.06C818.362,114.93,818.04,116.212,818.04,117.989L818.04,117.989z
			 M824.364,120.947h0.51V119.4h0.705v-0.458h-0.705v-4.012h-0.51l-2.32,3.961v0.509h2.32V120.947L824.364,120.947z M822.5,118.942
			l1.846-3.145h0.018v3.145H822.5L822.5,118.942z M827.807,120.947h0.51v-6.017h-0.393c-0.033,0.629-0.482,1.028-1.494,1.037v0.373
			h1.377V120.947L827.807,120.947z M832.422,119.638c0.018,0.825,0.518,1.411,1.469,1.411c1.445,0,1.836-1.249,1.836-3.221
			c0-1.896-0.398-2.898-1.76-2.898c-1.154,0-1.674,0.917-1.674,2.057c0,1.105,0.535,1.869,1.582,1.869
			c0.637,0,1.096-0.364,1.291-0.985l0.018,0.017c-0.025,1.988-0.434,2.737-1.268,2.737c-0.594,0-0.926-0.399-0.951-0.986
			L832.422,119.638L832.422,119.638z M832.836,116.893c0-0.773,0.289-1.539,1.123-1.539c0.824,0,1.123,0.766,1.123,1.539
			c0,0.774-0.299,1.539-1.123,1.539C833.125,118.432,832.836,117.667,832.836,116.893L832.836,116.893z M837.639,118.031h0.4
			c0.73,0,1.199,0.425,1.199,1.208c0,1.012-0.57,1.386-1.184,1.386c-0.773,0-1.139-0.578-1.139-1.284h-0.543
			c0.041,1.122,0.645,1.708,1.682,1.708c1.131,0,1.727-0.739,1.727-1.827c0-0.74-0.434-1.326-1.146-1.428v-0.017
			c0.654-0.161,0.967-0.697,0.967-1.36c0-0.927-0.609-1.487-1.535-1.487c-1.064,0-1.607,0.662-1.607,1.666h0.543
			c0.01-0.851,0.459-1.242,1.064-1.242c0.652,0,0.994,0.434,0.994,1.131c0,0.714-0.418,1.123-1.141,1.123h-0.281V118.031
			L837.639,118.031z M841.022,117.989c0-1.93,0.322-2.636,1.146-2.636c0.826,0,1.148,0.706,1.148,2.636
			c0,1.93-0.322,2.635-1.148,2.635C841.346,120.625,841.022,119.919,841.022,117.989L841.022,117.989z M840.479,117.989
			c0,1.777,0.322,3.06,1.689,3.06c1.369,0,1.691-1.283,1.691-3.06c0-1.777-0.322-3.06-1.691-3.06
			C840.801,114.93,840.479,116.212,840.479,117.989L840.479,117.989z M847.143,117.989c0-1.93,0.322-2.636,1.146-2.636
			c0.826,0,1.148,0.706,1.148,2.636c0,1.93-0.322,2.635-1.148,2.635C847.465,120.625,847.143,119.919,847.143,117.989
			L847.143,117.989z M846.6,117.989c0,1.777,0.322,3.06,1.689,3.06c1.369,0,1.691-1.283,1.691-3.06c0-1.777-0.322-3.06-1.691-3.06
			C846.922,114.93,846.6,116.212,846.6,117.989L846.6,117.989z M851.92,118.031h0.398c0.73,0,1.199,0.425,1.199,1.208
			c0,1.012-0.57,1.386-1.184,1.386c-0.773,0-1.139-0.578-1.139-1.284h-0.543c0.043,1.122,0.645,1.708,1.682,1.708
			c1.133,0,1.727-0.739,1.727-1.827c0-0.74-0.434-1.326-1.146-1.428v-0.017c0.654-0.161,0.969-0.697,0.969-1.36
			c0-0.927-0.611-1.487-1.539-1.487c-1.063,0-1.605,0.662-1.605,1.666h0.543c0.01-0.851,0.461-1.242,1.063-1.242
			c0.656,0,0.996,0.434,0.996,1.131c0,0.714-0.418,1.123-1.141,1.123h-0.279V118.031L851.92,118.031z M860.079,116.34
			c-0.018-0.825-0.518-1.411-1.469-1.411c-1.445,0-1.836,1.249-1.836,3.221c0,1.896,0.396,2.898,1.76,2.898
			c1.156,0,1.674-0.917,1.674-2.057c0-1.105-0.535-1.87-1.582-1.87c-0.637,0-1.096,0.365-1.291,0.985l-0.018-0.017
			c0.023-1.989,0.434-2.737,1.268-2.737c0.594,0,0.926,0.4,0.951,0.987L860.079,116.34L860.079,116.34z M857.418,119.085
			c0-0.773,0.299-1.539,1.123-1.539c0.834,0,1.123,0.765,1.123,1.539s-0.289,1.539-1.123,1.539
			C857.717,120.625,857.418,119.859,857.418,119.085L857.418,119.085z M861.422,117.989c0-1.93,0.322-2.636,1.148-2.636
			c0.822,0,1.146,0.706,1.146,2.636c0,1.93-0.324,2.635-1.146,2.635C861.745,120.625,861.422,119.919,861.422,117.989
			L861.422,117.989z M860.879,117.989c0,1.777,0.322,3.06,1.691,3.06c1.367,0,1.689-1.283,1.689-3.06c0-1.777-0.322-3.06-1.689-3.06
			C861.202,114.93,860.879,116.212,860.879,117.989L860.879,117.989z"/>
		<path d="M806.879,109.947h0.543v-5.61h1.564v-0.458h-3.672v0.458h1.563v5.61H806.879z M811.172,108.451
			c-0.086,0.791-0.416,1.173-0.953,1.173c-0.502,0-0.961-0.399-0.961-1.701v-0.213h2.465v-0.187c0-1.504-0.449-2.192-1.451-2.192
			c-0.996,0-1.557,0.79-1.557,2.354c0,1.701,0.561,2.363,1.514,2.363c0.85,0,1.377-0.637,1.451-1.598L811.172,108.451
			L811.172,108.451z M809.258,107.287c0.018-1.123,0.332-1.531,0.961-1.531s0.945,0.409,0.961,1.531H809.258L809.258,107.287z
			 M812.557,109.947h0.51v-6.068h-0.51V109.947L812.557,109.947z M814.325,109.947h0.578v-0.866h-0.578V109.947L814.325,109.947z
			 M818.252,106.989c0-1.93,0.322-2.636,1.148-2.636c0.824,0,1.146,0.706,1.146,2.636c0,1.93-0.322,2.635-1.146,2.635
			C818.575,109.624,818.252,108.919,818.252,106.989L818.252,106.989z M817.709,106.989c0,1.777,0.322,3.06,1.691,3.06
			c1.367,0,1.689-1.283,1.689-3.06c0-1.777-0.322-3.06-1.689-3.06C818.032,103.93,817.709,105.212,817.709,106.989L817.709,106.989z
			 M824.034,109.947h0.508V108.4h0.707v-0.458h-0.707v-4.012h-0.508l-2.32,3.961v0.509h2.32V109.947L824.034,109.947z
			 M822.17,107.942l1.846-3.145h0.018v3.145H822.17L822.17,107.942z M827.475,109.947h0.51v-6.017h-0.391
			c-0.033,0.629-0.482,1.028-1.496,1.037v0.373h1.377V109.947L827.475,109.947z M832.09,108.638c0.02,0.825,0.52,1.411,1.473,1.411
			c1.443,0,1.834-1.249,1.834-3.221c0-1.896-0.398-2.898-1.76-2.898c-1.154,0-1.674,0.917-1.674,2.057
			c0,1.105,0.535,1.869,1.58,1.869c0.639,0,1.098-0.364,1.293-0.985l0.018,0.017c-0.025,1.988-0.434,2.737-1.268,2.737
			c-0.596,0-0.926-0.399-0.953-0.986L832.09,108.638L832.09,108.638z M832.506,105.893c0-0.773,0.289-1.539,1.123-1.539
			c0.824,0,1.123,0.766,1.123,1.539c0,0.774-0.299,1.539-1.123,1.539C832.795,107.432,832.506,106.667,832.506,105.893
			L832.506,105.893z M837.309,107.031h0.4c0.73,0,1.199,0.425,1.199,1.208c0,1.012-0.57,1.386-1.184,1.386
			c-0.773,0-1.139-0.578-1.139-1.284h-0.543c0.041,1.122,0.645,1.708,1.682,1.708c1.131,0,1.727-0.739,1.727-1.827
			c0-0.74-0.434-1.326-1.146-1.428v-0.017c0.654-0.161,0.967-0.697,0.967-1.36c0-0.927-0.609-1.487-1.537-1.487
			c-1.063,0-1.605,0.662-1.605,1.666h0.543c0.008-0.851,0.459-1.242,1.064-1.242c0.654,0,0.994,0.434,0.994,1.131
			c0,0.715-0.418,1.123-1.141,1.123h-0.279v0.423H837.309z M840.743,105.816c0.035-1.003,0.418-1.462,1.105-1.462
			c0.621,0,1.063,0.434,1.063,1.233c0,0.578-0.23,0.986-0.834,1.496l-0.646,0.544c-0.807,0.68-1.256,1.326-1.256,2.32h3.33v-0.458
			h-2.754c0.094-0.629,0.426-1.021,1.055-1.539l0.654-0.536c0.773-0.638,0.994-1.122,0.994-1.853c0-1.148-0.738-1.631-1.557-1.631
			c-1.131,0-1.682,0.722-1.697,1.886H840.743L840.743,105.816z M847.875,109.947h0.51v-6.017h-0.391
			c-0.033,0.629-0.484,1.028-1.496,1.037v0.373h1.377V109.947L847.875,109.947z M850.891,108.29c0-0.731,0.385-1.343,1.148-1.343
			c0.766,0,1.148,0.612,1.148,1.343c0,0.723-0.383,1.335-1.148,1.335C851.276,109.625,850.891,109.013,850.891,108.29
			L850.891,108.29z M850.348,108.247c0,1.14,0.689,1.802,1.691,1.802c1.012,0,1.691-0.662,1.691-1.802
			c0-0.706-0.35-1.411-1.088-1.487v-0.017c0.604-0.153,0.908-0.756,0.908-1.326c0-0.986-0.627-1.487-1.512-1.487
			c-0.877,0-1.514,0.5-1.514,1.487c0,0.57,0.314,1.173,0.908,1.326v0.017C850.698,106.836,850.348,107.542,850.348,108.247
			L850.348,108.247z M851.071,105.442c0-0.646,0.322-1.089,0.969-1.089c0.654,0,0.971,0.442,0.971,1.089
			c0,0.638-0.314,1.08-0.971,1.08C851.393,106.522,851.071,106.08,851.071,105.442L851.071,105.442z M858.075,109.947h0.51v-6.017
			h-0.391c-0.033,0.629-0.484,1.028-1.496,1.037v0.373h1.377V109.947L858.075,109.947z M861.092,108.29
			c0-0.731,0.383-1.343,1.148-1.343c0.764,0,1.146,0.612,1.146,1.343c0,0.723-0.383,1.335-1.146,1.335
			C861.475,109.625,861.092,109.013,861.092,108.29L861.092,108.29z M860.549,108.247c0,1.14,0.688,1.802,1.691,1.802
			c1.012,0,1.689-0.662,1.689-1.802c0-0.706-0.348-1.411-1.088-1.487v-0.017c0.605-0.153,0.908-0.756,0.908-1.326
			c0-0.986-0.627-1.487-1.512-1.487c-0.875,0-1.514,0.5-1.514,1.487c0,0.57,0.314,1.173,0.908,1.326v0.017
			C860.897,106.836,860.549,107.542,860.549,108.247L860.549,108.247z M861.272,105.442c0-0.646,0.322-1.089,0.969-1.089
			c0.654,0,0.969,0.442,0.969,1.089c0,0.638-0.314,1.08-0.969,1.08C861.594,106.522,861.272,106.08,861.272,105.442L861.272,105.442
			z"/>
	</g>
	<g>
		<g>
			<path d="M743.532,91.012v0.871h1.336v1.147h-1.336v2.045h-1.221v-5.212h2.693v1.147h-1.473V91.012z"/>
			<path d="M748.938,93.515h-2.383c0,0.511,0.242,0.788,0.709,0.788c0.242,0,0.416-0.09,0.541-0.325h1.088
				c-0.18,0.836-0.896,1.217-1.623,1.217c-1.059,0-1.848-0.664-1.848-1.887c0-1.182,0.729-1.894,1.768-1.894
				c1.105,0,1.748,0.76,1.748,1.97V93.515z M747.885,92.789c-0.057-0.338-0.336-0.56-0.641-0.56c-0.33,0-0.604,0.193-0.672,0.56
				H747.885z"/>
			<path d="M750.567,91.531v1.894c0,0.449,0.1,0.768,0.564,0.768c0.467,0,0.566-0.318,0.566-0.768v-1.894h1.131v2.136
				c0,1.168-0.74,1.528-1.697,1.528c-0.959,0-1.699-0.36-1.699-1.528v-2.136H750.567z"/>
			<path d="M756.831,93.515h-2.383c0,0.511,0.242,0.788,0.709,0.788c0.242,0,0.416-0.09,0.541-0.325h1.088
				c-0.18,0.836-0.896,1.217-1.623,1.217c-1.057,0-1.848-0.664-1.848-1.887c0-1.182,0.729-1.894,1.768-1.894
				c1.107,0,1.748,0.76,1.748,1.97V93.515z M755.778,92.789c-0.057-0.338-0.334-0.56-0.641-0.56c-0.33,0-0.604,0.193-0.672,0.56
				H755.778z"/>
			<path d="M758.479,92.111h0.012c0.219-0.435,0.592-0.628,1.033-0.628h0.217v1.209c-0.154-0.097-0.305-0.118-0.479-0.118
				c-0.629,0-0.783,0.463-0.783,1.072v1.43h-1.133v-3.545h1.133V92.111z"/>
			<path d="M761.749,93.452l0.803-1.921h0.672l0.805,1.921l0.801-1.921h1.252l-1.668,3.545h-0.734l-0.789-1.941l-0.791,1.941h-0.732
				l-1.666-3.545h1.256L761.749,93.452z"/>
			<path d="M769.637,93.515h-2.383c0,0.511,0.242,0.788,0.709,0.788c0.242,0,0.416-0.09,0.541-0.325h1.088
				c-0.18,0.836-0.895,1.217-1.623,1.217c-1.057,0-1.848-0.664-1.848-1.887c0-1.182,0.729-1.894,1.768-1.894
				c1.107,0,1.748,0.76,1.748,1.97V93.515z M768.586,92.789c-0.057-0.338-0.336-0.56-0.641-0.56c-0.33,0-0.605,0.193-0.672,0.56
				H768.586z"/>
			<path d="M771.286,92.111h0.012c0.217-0.435,0.592-0.628,1.033-0.628h0.217v1.209c-0.156-0.097-0.305-0.118-0.479-0.118
				c-0.629,0-0.783,0.463-0.783,1.072v1.43h-1.133v-3.545h1.133V92.111z"/>
			<path d="M774.104,92.81l1.174-1.279h1.549l-1.598,1.638l1.697,1.908h-1.586l-1.236-1.444v1.444h-1.133V89.34h1.133V92.81z"/>
			<path d="M780.807,93.307c0,0.442-0.322,0.809-0.729,0.809c-0.404,0-0.729-0.366-0.729-0.809c0-0.45,0.324-0.809,0.729-0.809
				C780.485,92.498,780.807,92.857,780.807,93.307z"/>
			<path d="M784.891,91.012v0.871h1.338v1.147h-1.338v2.045h-1.219v-5.212h2.693v1.147h-1.475V91.012z"/>
			<path d="M790.297,93.515h-2.383c0,0.511,0.244,0.788,0.709,0.788c0.244,0,0.418-0.09,0.541-0.325h1.09
				c-0.182,0.836-0.896,1.217-1.623,1.217c-1.059,0-1.848-0.664-1.848-1.887c0-1.182,0.727-1.894,1.766-1.894
				c1.107,0,1.748,0.76,1.748,1.97V93.515z M789.247,92.789c-0.057-0.338-0.336-0.56-0.641-0.56c-0.33,0-0.605,0.193-0.674,0.56
				H789.247z"/>
			<path d="M791.926,91.531v1.894c0,0.449,0.102,0.768,0.566,0.768c0.467,0,0.564-0.318,0.564-0.768v-1.894h1.133v2.136
				c0,1.168-0.738,1.528-1.697,1.528c-0.957,0-1.697-0.36-1.697-1.528v-2.136H791.926z"/>
			<path d="M799.446,94.683h-0.014c-0.197,0.353-0.59,0.512-0.963,0.512c-0.945,0-1.611-0.878-1.611-1.895
				c0-1.016,0.652-1.887,1.6-1.887c0.367,0,0.752,0.152,0.988,0.463v-2.537h1.133v5.737h-1.133V94.683z M798.028,93.307
				c0,0.449,0.268,0.795,0.729,0.795c0.459,0,0.729-0.346,0.729-0.795c0-0.436-0.27-0.802-0.729-0.802
				C798.295,92.505,798.028,92.872,798.028,93.307z"/>
			<path d="M802.221,89.864l-0.168,2.289h-0.723l-0.168-2.289H802.221z"/>
			<path d="M806.333,95.076H805.2v-0.394h-0.012c-0.199,0.353-0.592,0.512-0.965,0.512c-0.945,0-1.611-0.878-1.611-1.895
				c0-1.016,0.652-1.887,1.6-1.887c0.367,0,0.752,0.152,0.988,0.463v-0.346h1.133V95.076L806.333,95.076z M803.782,93.307
				c0,0.449,0.268,0.795,0.729,0.795c0.459,0,0.729-0.346,0.729-0.795c0-0.436-0.27-0.802-0.729-0.802
				C804.049,92.505,803.782,92.872,803.782,93.307z"/>
			<path d="M808.217,92.111h0.014c0.217-0.435,0.59-0.628,1.031-0.628h0.219v1.209c-0.156-0.097-0.307-0.118-0.48-0.118
				c-0.627,0-0.783,0.463-0.783,1.072v1.43h-1.131v-3.545h1.131V92.111L808.217,92.111z"/>
			<path d="M811.139,95.076h-1.131v-2.509h-0.367V91.53h0.367v-1.064h1.131v1.064h0.643v1.037h-0.643V95.076z"/>
			<path d="M813.274,95.076h-1.135v-3.545h1.135V95.076z M813.342,90.169c0,0.387-0.287,0.705-0.635,0.705s-0.635-0.318-0.635-0.705
				c0-0.387,0.287-0.705,0.635-0.705S813.342,89.782,813.342,90.169z"/>
			<path d="M815.262,95.076h-1.133v-2.509h-0.396V91.53h0.396v-0.449c0-0.491,0.014-0.85,0.324-1.245
				c0.279-0.366,0.684-0.566,1.113-0.566c0.174,0,0.33,0.034,0.484,0.125v1.085c-0.131-0.063-0.248-0.118-0.396-0.118
				c-0.293,0-0.395,0.193-0.395,0.594v0.574h0.791v1.037h-0.791v2.509H815.262z"/>
			<path d="M817.563,95.076h-1.133v-3.545h1.133V95.076z M817.631,90.169c0,0.387-0.285,0.705-0.635,0.705
				c-0.348,0-0.633-0.318-0.633-0.705c0-0.387,0.285-0.705,0.633-0.705C817.346,89.464,817.631,89.782,817.631,90.169z"/>
			<path d="M820.61,92.685c-0.168-0.138-0.367-0.249-0.584-0.249c-0.438,0-0.777,0.374-0.777,0.864c0,0.512,0.328,0.871,0.795,0.871
				c0.199,0,0.418-0.089,0.566-0.242v1.064c-0.248,0.139-0.521,0.201-0.795,0.201c-0.947,0-1.736-0.782-1.736-1.853
				c0-1.141,0.783-1.929,1.785-1.929c0.262,0,0.521,0.069,0.746,0.208V92.685L820.61,92.685z"/>
			<path d="M824.59,93.515h-2.381c0,0.511,0.242,0.788,0.709,0.788c0.242,0,0.416-0.09,0.541-0.325h1.088
				c-0.18,0.836-0.896,1.217-1.623,1.217c-1.057,0-1.848-0.664-1.848-1.887c0-1.182,0.729-1.894,1.766-1.894
				c1.107,0,1.748,0.76,1.748,1.97V93.515z M823.54,92.789c-0.057-0.338-0.336-0.56-0.641-0.56c-0.33,0-0.604,0.193-0.672,0.56
				H823.54z"/>
			<path d="M828.665,93.307c0,0.442-0.324,0.809-0.729,0.809s-0.729-0.366-0.729-0.809c0-0.45,0.322-0.809,0.729-0.809
				C828.34,92.499,828.665,92.857,828.665,93.307z"/>
			<path d="M832.749,91.012v0.871h1.338v1.147h-1.338v2.045h-1.219v-5.212h2.691v1.147h-1.473V91.012z"/>
			<path d="M836.008,95.076h-1.133v-3.545h1.133V95.076z M836.077,90.169c0,0.387-0.285,0.705-0.635,0.705s-0.635-0.318-0.635-0.705
				c0-0.387,0.285-0.705,0.635-0.705S836.077,89.782,836.077,90.169z"/>
			<path d="M837.885,92.111h0.014c0.217-0.435,0.59-0.628,1.031-0.628h0.219v1.209c-0.156-0.097-0.305-0.118-0.479-0.118
				c-0.629,0-0.783,0.463-0.783,1.072v1.43h-1.133v-3.545h1.133v0.58H837.885z"/>
			<path d="M842.848,93.515h-2.381c0,0.511,0.242,0.788,0.709,0.788c0.242,0,0.416-0.09,0.541-0.325h1.088
				c-0.18,0.836-0.895,1.217-1.623,1.217c-1.057,0-1.848-0.664-1.848-1.887c0-1.182,0.729-1.894,1.766-1.894
				c1.107,0,1.748,0.76,1.748,1.97V93.515L842.848,93.515z M841.797,92.789c-0.055-0.338-0.336-0.56-0.641-0.56
				c-0.33,0-0.604,0.193-0.672,0.56H841.797z"/>
			<path d="M844.952,93.452l0.801-1.921h0.672l0.803,1.921l0.805-1.921h1.25l-1.668,3.545h-0.734l-0.789-1.941l-0.791,1.941h-0.732
				l-1.666-3.545h1.256L844.952,93.452z"/>
			<path d="M853.168,93.307c0,1.203-0.896,1.887-1.922,1.887c-1.021,0-1.922-0.678-1.922-1.887s0.895-1.894,1.922-1.894
				C852.272,91.413,853.168,92.098,853.168,93.307z M850.518,93.307c0,0.449,0.268,0.795,0.729,0.795s0.729-0.346,0.729-0.795
				c0-0.436-0.268-0.802-0.729-0.802S850.518,92.872,850.518,93.307z"/>
			<path d="M854.809,92.111h0.014c0.219-0.435,0.592-0.628,1.033-0.628h0.217v1.209c-0.154-0.097-0.305-0.118-0.479-0.118
				c-0.629,0-0.785,0.463-0.785,1.072v1.43h-1.131v-3.545h1.131V92.111z"/>
			<path d="M857.627,92.81l1.176-1.279h1.549l-1.6,1.638l1.699,1.908h-1.586l-1.238-1.444v1.444h-1.133V89.34h1.133V92.81
				L857.627,92.81z"/>
			<path d="M862.883,92.443c-0.174-0.104-0.416-0.172-0.607-0.172c-0.133,0-0.355,0.062-0.355,0.242c0,0.242,0.355,0.276,0.51,0.311
				c0.529,0.118,0.928,0.394,0.928,1.05c0,0.933-0.766,1.321-1.506,1.321c-0.453,0-0.9-0.146-1.287-0.408l0.41-0.878
				c0.23,0.18,0.615,0.359,0.896,0.359c0.143,0,0.354-0.076,0.354-0.27c0-0.276-0.354-0.29-0.709-0.394
				c-0.354-0.104-0.709-0.297-0.709-0.934c0-0.871,0.709-1.258,1.406-1.258c0.359,0,0.721,0.063,1.051,0.228L862.883,92.443z"/>
		</g>
		<path d="M844.426,67.666v18.96h18.961v-18.96H844.426z M860.393,79.248h-4.555v4.669h-4.141v-4.669h-4.848v-4.183h4.848v-4.689
			h4.141v4.689h4.555V79.248z"/>
		<g>
			
				<linearGradient id="SVGID_1_" gradientUnits="userSpaceOnUse" x1="715.4771" y1="538.5469" x2="715.4771" y2="551.5549" gradientTransform="matrix(1.5 0 0 -1.5 -324.22 895.1899)">
				<stop  offset="0" style="stop-color:#808285"/>
				<stop  offset="1" style="stop-color:#BCBDC0"/>
			</linearGradient>
			<path fill="url(#SVGID_1_)" d="M752.934,74.999c1.617,1.166,2.674,3.062,2.684,5.208c0.016,3.562-2.859,6.461-6.42,6.477
				l-1.896,0.001v-3.438l1.881-0.007c1.658-0.007,2.998-1.359,2.992-3.019c-0.008-1.66-1.357-3-3.02-2.992l-0.965-0.004l0.008,2.039
				l-2.377,2.203l0.008,1.789l1.852-0.005v3.437l-5.293,0.007l-0.014-18.063l5.877-0.004l0.021,3.17l-0.184-0.001l0.008,1.805
				l0.678,0.002c0.617-0.002,1.117-0.408,1.115-0.907c-0.002-0.498-0.506-0.899-1.125-0.896l-0.6-0.001v-3.172l1.957-0.001
				c1.963-0.092,3.561,1.673,3.57,3.86c0.004,0.944-0.289,1.813-0.781,2.496"/>
			
				<linearGradient id="SVGID_2_" gradientUnits="userSpaceOnUse" x1="736.813" y1="538.3018" x2="736.813" y2="551.8317" gradientTransform="matrix(1.5 0 0 -1.5 -324.22 895.1899)">
				<stop  offset="0" style="stop-color:#808285"/>
				<stop  offset="1" style="stop-color:#BCBDC0"/>
			</linearGradient>
			<path fill="url(#SVGID_2_)" d="M780.958,68.129c2.67-0.011,5.021,1.042,6.748,2.814l-2.359,2.409
				c-1.049-1.078-2.496-1.767-4.102-1.831l0.012,2.193c-2.113,0.009-4.092,1.772-4.084,3.884c0.008,1.59,0.984,2.94,2.26,3.523
				l-3.447-0.013c1.191,1.549,3,2.548,5.041,2.539c1.943-0.008,3.924-0.882,5.082-2.612h-3.529l-3.135-3.494l10.99,0.004
				l0.018,0.228c-0.102,5.114-4.268,9.24-9.412,9.263c-5.221,0.023-9.473-4.192-9.494-9.413
				C771.524,72.402,775.735,68.152,780.958,68.129"/>
			
				<linearGradient id="SVGID_3_" gradientUnits="userSpaceOnUse" x1="747.4536" y1="538.4912" x2="747.4536" y2="551.7764" gradientTransform="matrix(1.5 0 0 -1.5 -324.22 895.1899)">
				<stop  offset="0" style="stop-color:#808285"/>
				<stop  offset="1" style="stop-color:#BCBDC0"/>
			</linearGradient>
			<polygon fill="url(#SVGID_3_)" points="788.922,86.775 792.631,86.769 794.926,81.387 796.356,81.381 798.737,86.732 
				804.997,86.715 796.801,68.202 			"/>
			
				<linearGradient id="SVGID_4_" gradientUnits="userSpaceOnUse" x1="757.7974" y1="538.2666" x2="757.7974" y2="551.6982" gradientTransform="matrix(1.5 0 0 -1.5 -324.22 895.1899)">
				<stop  offset="0" style="stop-color:#808285"/>
				<stop  offset="1" style="stop-color:#BCBDC0"/>
			</linearGradient>
			<polygon fill="url(#SVGID_4_)" points="805.75,86.711 805.729,68.317 813.432,76.09 813.418,68.506 819.223,68.491 
				819.219,87.116 809.262,77.122 809.286,86.696 			"/>
			
				<linearGradient id="SVGID_5_" gradientUnits="userSpaceOnUse" x1="725.2251" y1="538.249" x2="725.2251" y2="551.6074" gradientTransform="matrix(1.5 0 0 -1.5 -324.22 895.1899)">
				<stop  offset="0" style="stop-color:#808285"/>
				<stop  offset="1" style="stop-color:#BCBDC0"/>
			</linearGradient>
			<path fill="url(#SVGID_5_)" d="M770.239,68.453l-0.004,12.403c0.016,3.446-2.934,6.252-6.584,6.268
				c-3.703,0.017-6.625-2.816-6.641-6.21l-0.016-12.403l5.857-0.025V81.72l-2.313-2.289l0.008,1.875
				c0.006,1.298,1.406,2.344,3.125,2.336c1.721-0.008,3.111-1.066,3.105-2.364l0.002-12.81L770.239,68.453z"/>
			
				<linearGradient id="SVGID_6_" gradientUnits="userSpaceOnUse" x1="769.4253" y1="538.373" x2="769.4253" y2="551.965" gradientTransform="matrix(1.5 0 0 -1.5 -324.22 895.1899)">
				<stop  offset="0" style="stop-color:#808285"/>
				<stop  offset="1" style="stop-color:#BCBDC0"/>
			</linearGradient>
			<path fill="url(#SVGID_6_)" d="M830.262,86.944l0.043-3.312l-0.549,0.016c-2.041-0.053-3.836-1.09-4.93-2.637l3.305-0.006
				c-1.285-0.671-2.168-2.001-2.174-3.541c-0.01-2.132,1.588-3.969,3.945-3.979l-0.012-2.24c3.426-0.015,6.217,2.75,6.23,6.175
				c0.014,3.37-2.66,6.123-6.008,6.227l-0.041,3.308c5.199-0.083,9.377-4.335,9.354-9.549c-0.021-5.251-4.299-9.49-9.551-9.467
				s-9.49,4.299-9.467,9.55c0.021,5.14,4.119,9.31,9.219,9.463c0.049,0.001,0.098,0.002,0.148,0.003L830.262,86.944z"/>
		</g>
		<path d="M754.067,74.151c1.615,1.166,2.672,3.062,2.682,5.208c0.016,3.561-2.859,6.461-6.42,6.477l-1.896,0.001v-3.438
			l1.881-0.007c1.66-0.007,3-1.359,2.992-3.019s-1.357-3-3.02-2.992l-0.965-0.004l0.008,2.039l-2.377,2.203l0.008,1.789l1.852-0.005
			v3.437l-5.293,0.007l-0.014-18.063l5.877-0.004l0.021,3.17l-0.184-0.001l0.008,1.805l0.678,0.002
			c0.617-0.003,1.117-0.408,1.115-0.907c-0.002-0.498-0.506-0.899-1.125-0.896l-0.598-0.001V67.78l1.955-0.001
			c1.963-0.093,3.561,1.673,3.57,3.86c0.004,0.944-0.289,1.813-0.781,2.496"/>
		<path d="M782.088,67.282c2.67-0.012,5.023,1.042,6.75,2.814l-2.361,2.409c-1.049-1.078-2.494-1.767-4.102-1.831l0.012,2.193
			c-2.111,0.009-4.092,1.771-4.082,3.884c0.008,1.59,0.982,2.94,2.26,3.523l-3.447-0.012c1.189,1.548,3,2.547,5.041,2.539
			c1.941-0.008,3.922-0.882,5.08-2.612h-3.527l-3.135-3.494l10.99,0.004l0.018,0.228c-0.102,5.114-4.268,9.24-9.412,9.263
			c-5.221,0.022-9.473-4.191-9.494-9.413C772.653,71.556,776.868,67.305,782.088,67.282"/>
		<polygon points="790.053,85.928 793.764,85.921 796.059,80.54 797.489,80.534 799.87,85.885 806.129,85.868 797.932,67.354 		"/>
		<polygon points="806.883,85.864 806.86,67.47 814.565,75.242 814.551,67.659 820.356,67.644 820.352,86.269 810.397,76.275 
			810.418,85.849 		"/>
		<path d="M771.372,67.606l-0.004,12.403c0.016,3.446-2.934,6.252-6.584,6.268c-3.705,0.016-6.625-2.816-6.641-6.21l-0.018-12.403
			l5.859-0.025v13.235l-2.313-2.29l0.008,1.875c0.006,1.297,1.404,2.344,3.125,2.336c1.721-0.007,3.111-1.065,3.105-2.363v-12.81
			L771.372,67.606z"/>
		<path d="M831.395,86.097l0.043-3.312l-0.551,0.016c-2.039-0.053-3.836-1.09-4.928-2.636l3.305-0.006
			c-1.283-0.671-2.168-2.002-2.174-3.541c-0.01-2.133,1.586-3.969,3.943-3.979l-0.01-2.241c3.426-0.015,6.215,2.75,6.229,6.175
			c0.016,3.369-2.658,6.123-6.006,6.227l-0.043,3.308c5.199-0.083,9.379-4.335,9.355-9.549c-0.023-5.251-4.299-9.49-9.551-9.467
			c-5.252,0.023-9.49,4.299-9.467,9.55c0.021,5.141,4.119,9.311,9.217,9.463c0.051,0.001,0.1,0.002,0.148,0.003L831.395,86.097z"/>
		
			<linearGradient id="SVGID_7_" gradientUnits="userSpaceOnUse" x1="747.1909" y1="550.6133" x2="747.1909" y2="539.8022" gradientTransform="matrix(1.5 0 0 -1.5 -322.72 895.1899)">
			<stop  offset="0" style="stop-color:#939598"/>
			<stop  offset="1" style="stop-color:#FFFFFF"/>
		</linearGradient>
		<polygon fill="url(#SVGID_7_)" points="800.522,84.771 804.5,84.754 797.983,69.943 791.633,84.81 793.178,84.803 797.92,73.422 
			802.409,83.488 801.288,83.493 797.893,75.972 796.401,79.495 798.141,79.487 		"/>
		
			<linearGradient id="SVGID_8_" gradientUnits="userSpaceOnUse" x1="757.5845" y1="551.4219" x2="757.5845" y2="539.7209" gradientTransform="matrix(1.5 0 0 -1.5 -322.72 895.1899)">
			<stop  offset="0" style="stop-color:#939598"/>
			<stop  offset="1" style="stop-color:#FFFFFF"/>
		</linearGradient>
		<polygon fill="url(#SVGID_8_)" points="817.889,80.174 817.866,70.166 816.842,70.17 816.836,77.583 815.436,76.11 
			815.444,68.747 819.231,68.73 819.249,83.607 809.399,73.681 809.42,84.935 808.067,84.931 808.069,70.131 		"/>
		
			<linearGradient id="SVGID_9_" gradientUnits="userSpaceOnUse" x1="725.0181" y1="551.5205" x2="725.0181" y2="539.555" gradientTransform="matrix(1.5 0 0 -1.5 -322.72 895.1899)">
			<stop  offset="0" style="stop-color:#939598"/>
			<stop  offset="1" style="stop-color:#FFFFFF"/>
		</linearGradient>
		<path fill="url(#SVGID_9_)" d="M769.01,68.602l0.014,11.708c0.008,1.932-1.869,3.506-4.193,3.516
			c-2.324,0.01-4.271-1.547-4.279-3.479l0.012-10.414l1.111-0.004l-0.008,7.167l1.246,1.212l-0.021-9.66l-3.711,0.016l0.031,11.509
			c0.012,2.781,2.531,5.025,5.625,5.011c3.096-0.014,5.432-2.279,5.582-5.061l0.016-11.528L769.01,68.602z"/>
		
			<linearGradient id="SVGID_10_" gradientUnits="userSpaceOnUse" x1="736.5356" y1="551.6348" x2="736.5356" y2="539.6404" gradientTransform="matrix(1.5 0 0 -1.5 -322.72 895.1899)">
			<stop  offset="0" style="stop-color:#939598"/>
			<stop  offset="1" style="stop-color:#FFFFFF"/>
		</linearGradient>
		<path fill="url(#SVGID_10_)" d="M780.022,70.013l0.004,1.033c-2.322,0.859-3.975,3.098-3.961,5.717
			c0.004,0.89,0.197,1.734,0.547,2.494l1.498,0.008c-0.461-0.729-0.73-1.582-0.734-2.507c-0.01-2.443,1.822-4.463,4.191-4.742
			l-0.004-2.285l0.535-0.043c1.613-0.007,3.102,0.527,4.291,1.433l0.875-0.905c-1.432-1.15-3.189-1.793-5.172-1.785
			c-4.586,0.02-8.289,3.755-8.27,8.343c0.02,4.587,3.756,8.291,8.344,8.271c4.166-0.019,7.559-2.995,8.141-6.997l0.041-0.187
			l-7.549-0.005l1.32,1.472l4.576-0.001c-1.023,2.612-3.561,4.448-6.535,4.46c-3.895,0.017-7.064-3.125-7.08-7.019
			c-0.014-3.164,2.057-5.849,4.924-6.754"/>
		
			<linearGradient id="SVGID_11_" gradientUnits="userSpaceOnUse" x1="715.2651" y1="551.4316" x2="715.2651" y2="539.6213" gradientTransform="matrix(1.5 0 0 -1.5 -322.72 895.1899)">
			<stop  offset="0" style="stop-color:#939598"/>
			<stop  offset="1" style="stop-color:#FFFFFF"/>
		</linearGradient>
		<path fill="url(#SVGID_11_)" d="M752.514,74.507c0.008-0.005,0.016-0.01,0.021-0.015c0.771-0.527,1.297-1.564,1.291-2.754
			c-0.006-1.719-1.113-3.108-2.471-3.018l-2.48,0.01v1.33l1.307-0.004c0.996-0.004,1.809,0.787,1.813,1.768
			c0.004,0.981-0.801,1.789-1.795,1.793l-1.875-0.001l-0.016-3.554l0.652-0.001v-1.33l-4.445,0.018l0.014,16.246l1.393-0.006
			l-0.01-14.896l0.996-0.004l0.029,9.081l1.424-1.397l-0.012-2.367l1.934-0.008c2.203-0.01,3.998,1.769,4.008,3.972
			c0.008,2.204-1.77,3.998-3.973,4.007l-3.361,0.015l0.006,1.397l3.574-0.016c2.941-0.013,5.316-2.409,5.305-5.351
			c-0.01-2.255-1.418-4.176-3.398-4.946"/>
		
			<linearGradient id="SVGID_12_" gradientUnits="userSpaceOnUse" x1="769.1802" y1="551.8594" x2="769.1802" y2="539.5788" gradientTransform="matrix(1.5 0 0 -1.5 -322.72 895.1899)">
			<stop  offset="0" style="stop-color:#939598"/>
			<stop  offset="1" style="stop-color:#FFFFFF"/>
		</linearGradient>
		<path fill="url(#SVGID_12_)" d="M830.165,69.5l0.01,2.315c-2.275,0.415-3.996,2.412-3.986,4.806
			c0.006,0.925,0.268,1.779,0.719,2.513h-1.518c-0.344-0.766-0.535-1.614-0.541-2.507c-0.01-2.569,1.543-4.78,3.766-5.731
			l-0.006-1.022c-2.758,1.005-4.729,3.656-4.715,6.758c0.018,3.896,3.143,7.051,7.018,7.126l0.484-0.003v1.35l-0.508,0.019
			c-4.615-0.087-8.34-3.846-8.359-8.486c-0.021-4.708,3.777-8.542,8.486-8.563s8.543,3.78,8.563,8.488
			c0.021,4.641-3.672,8.432-8.285,8.559l-0.023-1.366c3.869-0.115,6.961-3.295,6.943-7.187c-0.018-3.954-3.236-7.145-7.189-7.128
			c-0.303,0.001-0.602,0.021-0.893,0.059"/>
	</g>
</g>
</svg>
