<?xml version="1.0" encoding="utf-8"?>
<!-- Generator: Adobe Illustrator 16.0.0, SVG Export Plug-In . SVG Version: 6.00 Build 0)  -->
<!DOCTYPE svg PUBLIC "-//W3C//DTD SVG 1.1//EN" "http://www.w3.org/Graphics/SVG/1.1/DTD/svg11.dtd">
<svg version="1.1" id="Layer_1" xmlns="http://www.w3.org/2000/svg" xmlns:xlink="http://www.w3.org/1999/xlink" x="0px" y="0px"
	 width="136.647px" height="104.344px" viewBox="47.439 52.377 136.647 104.344"
	 enable-background="new 47.439 52.377 136.647 104.344" xml:space="preserve">
<g>
	<path d="M47.439,155.157h0.917v-3.068c0-0.595,0.357-0.893,0.731-0.893c0.459,0,0.638,0.229,0.638,0.824v3.137h0.917v-3.451
		c0-0.926-0.442-1.24-1.138-1.24c-0.468,0-0.868,0.238-1.123,0.628l-0.025-0.017v-1.988h-0.917V155.157L47.439,155.157z
		 M51.119,151.264h0.629v2.84c0,0.935,0.306,1.104,0.926,1.104c0.289,0,0.544-0.025,0.739-0.076v-0.679
		c-0.085,0.017-0.195,0.026-0.332,0.026c-0.314,0-0.417-0.128-0.417-0.485v-2.729h0.748v-0.679h-0.748v-1.301h-0.917v1.301h-0.629
		L51.119,151.264L51.119,151.264z M53.482,151.264h0.629v2.84c0,0.935,0.306,1.104,0.925,1.104c0.289,0,0.544-0.025,0.74-0.076
		v-0.679c-0.085,0.017-0.196,0.026-0.332,0.026c-0.314,0-0.417-0.128-0.417-0.485v-2.729h0.748v-0.679h-0.748v-1.301H54.11v1.301
		h-0.629L53.482,151.264L53.482,151.264z M56.253,156.653h0.917v-2.031h0.017c0.17,0.408,0.544,0.654,1.038,0.654
		c0.629,0,1.41-0.425,1.41-2.346c0-1.573-0.424-2.464-1.47-2.464c-0.502,0-0.842,0.271-1.029,0.679h-0.017v-0.56h-0.866V156.653
		L56.253,156.653z M57.119,152.82c0-0.978,0.145-1.624,0.774-1.624c0.638,0,0.774,0.655,0.774,1.692
		c0,1.267-0.238,1.658-0.766,1.658C57.255,154.546,57.119,153.917,57.119,152.82L57.119,152.82z M60.435,151.927h0.968v-1.121
		h-0.968V151.927L60.435,151.927z M60.435,155.157h0.968v-1.121h-0.968V155.157L60.435,155.157z M61.854,155.276h0.756l1.929-6.306
		h-0.756L61.854,155.276L61.854,155.276z M64.371,155.276h0.756l1.929-6.306H66.3L64.371,155.276L64.371,155.276z M68.136,155.157
		h1.071l0.654-3.553h0.017l0.714,3.553h1.028l1.045-4.572h-0.918l-0.629,3.604h-0.017l-0.68-3.604h-1.037l-0.68,3.604h-0.017
		l-0.637-3.604h-0.952L68.136,155.157L68.136,155.157z M73.958,155.157h1.071l0.655-3.553H75.7l0.714,3.553h1.028l1.045-4.572H77.57
		l-0.629,3.604h-0.017l-0.68-3.604h-1.037l-0.68,3.604H74.51l-0.638-3.604H72.92L73.958,155.157L73.958,155.157z M79.781,155.157
		h1.071l0.654-3.553h0.017l0.714,3.553h1.028l1.045-4.572h-0.918l-0.629,3.604h-0.017l-0.68-3.604H81.03l-0.68,3.604h-0.017
		l-0.637-3.604h-0.952L79.781,155.157L79.781,155.157z M84.507,155.157h0.968v-1.121h-0.968V155.157L84.507,155.157z
		 M86.454,155.157h0.866v-0.56h0.017c0.119,0.297,0.349,0.679,1.003,0.679c1.071,0,1.496-0.892,1.496-2.465
		c0-2.031-0.713-2.345-1.41-2.345c-0.494,0-0.868,0.246-1.038,0.653h-0.017v-2.03h-0.917V155.157L86.454,155.157z M87.32,152.922
		c0-1.097,0.127-1.726,0.833-1.726c0.527,0,0.714,0.425,0.714,1.658c0,1.038-0.136,1.692-0.774,1.692
		C87.464,154.546,87.32,153.9,87.32,152.922L87.32,152.922z M92.88,155.157h0.866v-4.572h-0.917v3.196
		c0,0.51-0.357,0.765-0.749,0.765c-0.391,0-0.621-0.17-0.621-0.68v-3.281h-0.917v3.196c0,1.181,0.458,1.495,1.138,1.495
		c0.511,0,0.944-0.246,1.174-0.654h0.026V155.157L92.88,155.157z M94.682,155.549c0,0.374,0.153,1.172,1.512,1.172
		c1.233,0,1.708-0.67,1.708-1.785v-4.351h-0.866v0.56h-0.017c-0.085-0.331-0.468-0.679-1.003-0.679c-1.3,0-1.453,1.351-1.453,2.354
		c0,1.25,0.297,2.303,1.368,2.303c0.442,0,0.868-0.229,1.038-0.628h0.017v0.739c0,0.527-0.298,0.859-0.774,0.859
		c-0.408,0-0.664-0.264-0.664-0.544H94.682L94.682,155.549z M95.479,152.727c0-0.85,0.111-1.53,0.774-1.53
		c0.638,0,0.731,0.825,0.731,1.573c0,0.723-0.077,1.624-0.792,1.624C95.514,154.393,95.479,153.509,95.479,152.727L95.479,152.727z
		 M101.718,151.592c0-0.812-0.645-1.125-1.453-1.125c-1.207,0-1.606,0.535-1.606,1.512h0.866c0-0.446,0.085-0.884,0.698-0.884
		c0.485,0,0.629,0.266,0.629,0.688c0,0.401-0.204,0.494-0.536,0.587l-0.714,0.195c-0.62,0.204-1.062,0.416-1.062,1.433
		c0,0.873,0.458,1.281,1.189,1.281c0.536,0,0.894-0.221,1.14-0.671h0.017c0.025,0.441,0.365,0.603,0.772,0.603
		c0.178,0,0.34-0.059,0.45-0.11v-0.594c-0.034,0.017-0.093,0.025-0.153,0.025c-0.136,0-0.238-0.152-0.238-0.322L101.718,151.592
		L101.718,151.592z M100.853,153.512c0,0.67-0.272,1.085-0.825,1.085c-0.383,0-0.57-0.305-0.57-0.687c0-0.339,0.11-0.61,0.374-0.737
		c0.272-0.127,0.783-0.237,1.021-0.424V153.512L100.853,153.512z M102.654,155.157h0.917v-3.068c0-0.595,0.357-0.893,0.731-0.893
		c0.459,0,0.638,0.229,0.638,0.824v3.137h0.917v-3.451c0-0.926-0.441-1.24-1.138-1.24c-0.51,0-0.944,0.246-1.174,0.653h-0.025
		v-0.534h-0.866V155.157L102.654,155.157z M106.564,152.871c0,1.42,0.433,2.405,1.699,2.405c1.275,0,1.708-0.985,1.708-2.405
		s-0.374-2.405-1.708-2.405C106.938,150.466,106.564,151.451,106.564,152.871L106.564,152.871z M107.481,152.871
		c0-1.012,0.119-1.726,0.782-1.726c0.672,0,0.791,0.714,0.791,1.726c0,1.165-0.119,1.726-0.791,1.726
		C107.601,154.597,107.481,154.036,107.481,152.871L107.481,152.871z M110.62,155.157h0.968v-1.121h-0.968V155.157L110.62,155.157z
		 M114.785,153.492c0,0.688-0.187,1.113-0.697,1.105c-0.664,0-0.783-0.714-0.783-1.726c0-1.012,0.119-1.726,0.783-1.726
		c0.536-0.017,0.655,0.536,0.655,0.961h0.917c0-0.57-0.204-1.657-1.572-1.64c-1.326,0-1.7,0.985-1.7,2.405s0.374,2.405,1.7,2.405
		c1.13,0,1.504-0.688,1.563-1.784H114.785L114.785,153.492z M116.162,152.871c0,1.42,0.433,2.405,1.7,2.405
		c1.275,0,1.708-0.985,1.708-2.405s-0.373-2.405-1.708-2.405C116.536,150.466,116.162,151.451,116.162,152.871L116.162,152.871z
		 M117.079,152.871c0-1.012,0.119-1.726,0.783-1.726c0.672,0,0.791,0.714,0.791,1.726c0,1.165-0.119,1.726-0.791,1.726
		C117.198,154.597,117.079,154.036,117.079,152.871L117.079,152.871z M120.319,155.157h0.917v-3.068
		c0-0.595,0.357-0.893,0.723-0.893c0.383,0,0.562,0.229,0.562,0.824v3.137h0.917v-3.068c0-0.595,0.357-0.893,0.732-0.893
		c0.374,0,0.553,0.229,0.553,0.824v3.137h0.917v-3.477c0-0.883-0.467-1.214-1.113-1.214c-0.553,0-0.893,0.254-1.157,0.696
		c-0.136-0.382-0.407-0.696-1.062-0.696c-0.434,0-0.868,0.246-1.098,0.653h-0.025v-0.534h-0.866V155.157L120.319,155.157z
		 M126.039,155.276h0.756l1.929-6.306h-0.756L126.039,155.276L126.039,155.276z M131.419,155.157h0.866v-6.068h-0.917v2.03h-0.017
		c-0.17-0.407-0.544-0.653-1.038-0.653c-0.697,0-1.411,0.314-1.411,2.345c0,1.573,0.425,2.465,1.496,2.465
		c0.655,0,0.884-0.382,1.003-0.679h0.017L131.419,155.157L131.419,155.157z M131.419,152.922c0,0.978-0.145,1.624-0.774,1.624
		c-0.638,0-0.774-0.655-0.774-1.692c0-1.233,0.187-1.658,0.714-1.658C131.292,151.196,131.419,151.825,131.419,152.922
		L131.419,152.922z M133.17,155.157h0.917v-2.736c0-0.851,0.501-1.038,0.918-1.038c0.153,0,0.314,0.034,0.382,0.051V150.5
		c-0.06-0.017-0.119-0.034-0.221-0.034c-0.519,0-0.859,0.323-1.063,0.832h-0.017v-0.713h-0.917L133.17,155.157L133.17,155.157z
		 M138.185,155.157h0.866v-4.572h-0.917v3.196c0,0.51-0.357,0.765-0.749,0.765c-0.392,0-0.621-0.17-0.621-0.68v-3.281h-0.917v3.196
		c0,1.181,0.458,1.495,1.138,1.495c0.51,0,0.944-0.246,1.174-0.654h0.025L138.185,155.157L138.185,155.157z M142.155,153.492
		c0,0.688-0.188,1.113-0.698,1.105c-0.663,0-0.782-0.714-0.782-1.726c0-1.012,0.119-1.726,0.782-1.726
		c0.536-0.017,0.655,0.536,0.655,0.961h0.917c0-0.57-0.204-1.657-1.572-1.64c-1.326,0-1.699,0.985-1.699,2.405
		s0.374,2.405,1.699,2.405c1.13,0,1.504-0.688,1.563-1.784H142.155L142.155,153.492z M143.66,155.157h0.917v-1.451l0.519-0.627
		l1.122,2.078h1.003l-1.556-2.808l1.377-1.764l-1.063,0.008l-1.385,1.909h-0.017v-3.413h-0.917V155.157L143.66,155.157z
		 M148.437,155.157h1.071l1.207-4.572h-0.977l-0.722,3.604h-0.017l-0.799-3.604h-0.985L148.437,155.157L148.437,155.157z
		 M151.038,152.871c0,1.42,0.433,2.405,1.7,2.405c1.275,0,1.708-0.985,1.708-2.405s-0.374-2.405-1.708-2.405
		C151.412,150.466,151.038,151.451,151.038,152.871L151.038,152.871z M151.955,152.871c0-1.012,0.119-1.726,0.783-1.726
		c0.672,0,0.791,0.714,0.791,1.726c0,1.165-0.119,1.726-0.791,1.726C152.074,154.597,151.955,154.036,151.955,152.871
		L151.955,152.871z M155.152,155.157h0.917v-2.736c0-0.851,0.501-1.038,0.918-1.038c0.153,0,0.314,0.034,0.382,0.051V150.5
		c-0.06-0.017-0.119-0.034-0.221-0.034c-0.519,0-0.858,0.323-1.063,0.832h-0.017v-0.713h-0.917L155.152,155.157L155.152,155.157z
		 M157.872,155.157h0.917v-6.068h-0.917V155.157L157.872,155.157z M162.716,151.592c0-0.812-0.646-1.125-1.453-1.125
		c-1.207,0-1.606,0.535-1.606,1.512h0.866c0-0.446,0.085-0.884,0.697-0.884c0.485,0,0.629,0.266,0.629,0.688
		c0,0.401-0.204,0.494-0.536,0.587l-0.714,0.195c-0.62,0.204-1.062,0.416-1.062,1.433c0,0.873,0.458,1.281,1.189,1.281
		c0.536,0,0.893-0.221,1.14-0.671h0.017c0.025,0.441,0.365,0.603,0.772,0.603c0.179,0,0.34-0.059,0.451-0.11v-0.594
		c-0.034,0.017-0.094,0.025-0.153,0.025c-0.136,0-0.238-0.152-0.238-0.322L162.716,151.592L162.716,151.592z M161.85,153.512
		c0,0.67-0.272,1.085-0.825,1.085c-0.383,0-0.57-0.305-0.57-0.687c0-0.339,0.111-0.61,0.375-0.737
		c0.272-0.127,0.783-0.237,1.021-0.424L161.85,153.512L161.85,153.512z M163.703,155.549c0,0.374,0.153,1.172,1.513,1.172
		c1.232,0,1.708-0.67,1.708-1.785v-4.351h-0.866v0.56h-0.017c-0.085-0.331-0.467-0.679-1.003-0.679c-1.3,0-1.453,1.351-1.453,2.354
		c0,1.25,0.297,2.303,1.368,2.303c0.442,0,0.868-0.229,1.038-0.628h0.017v0.739c0,0.527-0.298,0.859-0.774,0.859
		c-0.408,0-0.664-0.264-0.664-0.544H163.703L163.703,155.549z M164.501,152.727c0-0.85,0.11-1.53,0.774-1.53
		c0.638,0,0.731,0.825,0.731,1.573c0,0.723-0.077,1.624-0.791,1.624C164.535,154.393,164.501,153.509,164.501,152.727
		L164.501,152.727z M170.918,152.99v-0.484c0-1.275-0.339-2.04-1.614-2.04c-1.437,0-1.691,1.274-1.691,2.473
		c0,2.117,0.925,2.337,1.674,2.337c0.995,0,1.606-0.637,1.606-1.649h-0.866c0,0.272-0.077,1.021-0.732,1.021
		c-0.688,0-0.765-0.783-0.765-1.395v-0.264L170.918,152.99L170.918,152.99z M168.53,152.362v-0.094c0-0.595,0.179-1.174,0.765-1.174
		c0.519,0,0.706,0.442,0.706,1.021v0.247H168.53L168.53,152.362z M171.676,155.157h0.917v-3.068c0-0.595,0.357-0.893,0.731-0.893
		c0.459,0,0.638,0.229,0.638,0.824v3.137h0.917v-3.451c0-0.926-0.441-1.24-1.138-1.24c-0.511,0-0.944,0.246-1.174,0.653h-0.026
		v-0.534h-0.866L171.676,155.157L171.676,155.157z"/>
	<path d="M47.473,144.157h1.461c1.769,0,2.201-1.053,2.201-3.034c0-1.98-0.433-3.034-2.201-3.034h-1.461V144.157L47.473,144.157z
		 M48.016,138.547H48.9c1.19,0,1.692,0.595,1.692,2.584c0,1.972-0.501,2.567-1.692,2.567h-0.885L48.016,138.547L48.016,138.547z
		 M52.054,144.157h0.509v-2.822c0-0.875,0.527-1.283,1.088-1.283c0.076,0,0.162,0.008,0.247,0.025v-0.509
		c-0.06-0.017-0.119-0.025-0.179-0.025c-0.527,0-0.943,0.305-1.139,0.806h-0.017v-0.704h-0.509V144.157L52.054,144.157z
		 M54.417,143.053c0,0.85,0.466,1.206,1.155,1.206c0.459,0,0.901-0.229,1.156-0.73h0.017v0.628h0.458v-4.512h-0.509v3.034
		c0,0.697-0.408,1.157-0.987,1.157c-0.536,0-0.782-0.281-0.782-1.012v-3.179h-0.509L54.417,143.053L54.417,143.053z M60.393,142.658
		c-0.085,0.793-0.417,1.177-0.936,1.177c-0.476,0-0.961-0.23-0.961-1.936c0-1.596,0.459-1.933,1.012-1.933
		c0.544,0,0.825,0.312,0.884,1.011h0.509c-0.051-0.918-0.542-1.435-1.393-1.435c-0.995,0-1.555,0.786-1.555,2.348
		c0,1.706,0.56,2.369,1.513,2.369c0.833,0,1.359-0.637,1.436-1.601H60.393L60.393,142.658z M61.6,144.157h0.509v-1.581l0.672-0.799
		l1.343,2.38h0.629l-1.606-2.839l1.36-1.673h-0.629l-1.751,2.243H62.11v-3.798H61.6V144.157L61.6,144.157z M65.934,144.157h0.578
		l1.19-4.512h-0.544l-0.917,3.935h-0.017l-1.003-3.935h-0.543L65.934,144.157L65.934,144.157z M68.017,141.896
		c0,1.573,0.56,2.363,1.555,2.363c0.995,0,1.555-0.79,1.555-2.363c0-1.564-0.56-2.354-1.555-2.354
		C68.577,139.543,68.017,140.333,68.017,141.896L68.017,141.896z M68.56,141.896c0-1.437,0.442-1.93,1.012-1.93
		c0.57,0,1.012,0.493,1.012,1.93c0,1.446-0.442,1.939-1.012,1.939C69.002,143.835,68.56,143.342,68.56,141.896L68.56,141.896z
		 M71.876,144.157h0.509v-2.822c0-0.875,0.527-1.283,1.088-1.283c0.076,0,0.161,0.008,0.247,0.025v-0.509
		c-0.06-0.017-0.119-0.025-0.179-0.025c-0.527,0-0.943,0.305-1.139,0.806h-0.017v-0.704h-0.509V144.157L71.876,144.157z
		 M74.273,144.157h0.509v-6.068h-0.509V144.157L74.273,144.157z M76.218,140.978c0-0.649,0.264-1.011,0.868-1.011
		c0.459,0,0.782,0.202,0.782,0.775c0,0.526-0.076,0.611-0.434,0.714l-0.961,0.272c-0.637,0.179-0.909,0.657-0.909,1.254
		c0,0.785,0.356,1.277,1.147,1.277c0.501,0,0.961-0.169,1.165-0.765h0.017v0.154c0,0.467,0.254,0.56,0.653,0.56
		c0.068,0,0.145-0.017,0.238-0.051v-0.373h-0.145c-0.178,0-0.263-0.119-0.263-0.375v-2.675c0-0.708-0.339-1.191-1.274-1.191
		c-0.953,0-1.394,0.517-1.394,1.435H76.218L76.218,140.978z M77.868,142.556c0,0.81-0.425,1.279-1.046,1.279
		c-0.442,0-0.714-0.358-0.714-0.887c0-0.537,0.264-0.802,0.774-0.938l0.425-0.111c0.204-0.051,0.493-0.145,0.544-0.299h0.017
		V142.556L77.868,142.556z M81.786,140.341h-0.017c-0.162-0.51-0.561-0.798-1.055-0.798c-0.995,0-1.444,0.798-1.444,2.354
		c0,1.803,0.696,2.261,1.394,2.261c0.468,0,0.893-0.254,1.055-0.807h0.017v0.713c0,0.799-0.332,1.233-0.952,1.233
		c-0.451,0-0.851-0.255-0.851-0.681h-0.509c0.009,0.646,0.467,1.104,1.343,1.104c1.021,0,1.479-0.637,1.479-1.886v-4.19h-0.458
		v0.697H81.786z M79.813,141.846c0-1.437,0.357-1.879,0.961-1.879s0.961,0.442,0.961,1.879c0,1.445-0.357,1.888-0.961,1.888
		S79.813,143.291,79.813,141.846L79.813,141.846z M85.5,142.662c-0.085,0.791-0.417,1.174-0.953,1.174
		c-0.502,0-0.961-0.4-0.961-1.701v-0.212h2.465v-0.187c0-1.505-0.45-2.192-1.453-2.192c-0.995,0-1.555,0.79-1.555,2.354
		c0,1.701,0.56,2.363,1.512,2.363c0.851,0,1.377-0.637,1.453-1.598L85.5,142.662L85.5,142.662z M83.587,141.498
		c0.017-1.123,0.332-1.531,0.961-1.531s0.944,0.408,0.961,1.531H83.587L83.587,141.498z M86.852,144.157h0.509v-3.035
		c0-0.697,0.4-1.156,0.995-1.156c0.519,0,0.774,0.306,0.774,0.926v3.264h0.509v-3.409c0-0.85-0.466-1.206-1.155-1.206
		c-0.459,0-0.901,0.229-1.157,0.729H87.31v-0.627h-0.458V144.157L86.852,144.157z M92.853,144.157h0.509v-4.088h0.799v-0.424h-0.799
		v-0.536c0-0.519,0.178-0.664,0.552-0.664c0.094,0,0.17,0.008,0.247,0.025v-0.424c-0.094-0.017-0.17-0.025-0.323-0.025
		c-0.857,0-0.985,0.466-0.985,1.087v0.536h-0.62v0.424h0.62V144.157L92.853,144.157z M95.216,138.904h0.509v-0.866h-0.509V138.904
		L95.216,138.904z M96.491,138.904H97v-0.866h-0.509V138.904L96.491,138.904z M94.714,143.053c0,0.85,0.466,1.206,1.155,1.206
		c0.459,0,0.901-0.229,1.156-0.73h0.017v0.628H97.5v-4.512h-0.509v3.034c0,0.697-0.408,1.157-0.987,1.157
		c-0.536,0-0.782-0.281-0.782-1.012v-3.179h-0.509L94.714,143.053L94.714,143.053z M98.488,144.157h0.509v-2.822
		c0-0.875,0.527-1.283,1.088-1.283c0.077,0,0.162,0.008,0.247,0.025v-0.509c-0.06-0.017-0.119-0.025-0.179-0.025
		c-0.527,0-0.943,0.305-1.139,0.806h-0.017v-0.704h-0.509V144.157L98.488,144.157z M103.486,144.157h0.603l0.816-4.003h0.017
		l0.816,4.003h0.603l1.003-4.512H106.8l-0.765,4.003h-0.017l-0.765-4.003h-0.629l-0.816,4.003h-0.017l-0.765-4.003h-0.544
		L103.486,144.157L103.486,144.157z M110.192,142.662c-0.085,0.791-0.417,1.174-0.953,1.174c-0.501,0-0.961-0.4-0.961-1.701v-0.212
		h2.465v-0.187c0-1.505-0.45-2.192-1.453-2.192c-0.995,0-1.555,0.79-1.555,2.354c0,1.701,0.56,2.363,1.513,2.363
		c0.85,0,1.376-0.637,1.453-1.598L110.192,142.662L110.192,142.662z M108.279,141.498c0.017-1.123,0.332-1.531,0.961-1.531
		c0.629,0,0.944,0.408,0.961,1.531H108.279L108.279,141.498z M111.578,144.157h0.509v-4.512h-0.509V144.157L111.578,144.157z
		 M111.578,138.955h0.509v-0.866h-0.509V138.955L111.578,138.955z M113.295,143.418c0,0.603,0.263,0.79,0.951,0.79
		c0.17,0,0.297-0.017,0.357-0.051v-0.424c-0.11,0.034-0.212,0.051-0.314,0.051c-0.332,0-0.484-0.119-0.484-0.476v-3.239h0.799
		v-0.424h-0.799v-1.25h-0.509v1.25h-0.621v0.424h0.621L113.295,143.418L113.295,143.418z M117.426,142.662
		c-0.085,0.791-0.417,1.174-0.953,1.174c-0.501,0-0.961-0.4-0.961-1.701v-0.212h2.465v-0.187c0-1.505-0.45-2.192-1.453-2.192
		c-0.995,0-1.555,0.79-1.555,2.354c0,1.701,0.56,2.363,1.512,2.363c0.851,0,1.377-0.637,1.453-1.598L117.426,142.662
		L117.426,142.662z M115.512,141.498c0.017-1.123,0.332-1.531,0.961-1.531s0.944,0.408,0.961,1.531H115.512L115.512,141.498z
		 M118.777,144.157h0.509v-2.822c0-0.875,0.527-1.283,1.088-1.283c0.077,0,0.162,0.008,0.247,0.025v-0.509
		c-0.06-0.017-0.119-0.025-0.178-0.025c-0.527,0-0.944,0.305-1.139,0.806h-0.017v-0.704h-0.509L118.777,144.157L118.777,144.157z
		 M123.41,142.662c-0.085,0.791-0.417,1.174-0.953,1.174c-0.501,0-0.961-0.4-0.961-1.701v-0.212h2.465v-0.187
		c0-1.505-0.449-2.192-1.453-2.192c-0.995,0-1.555,0.79-1.555,2.354c0,1.701,0.56,2.363,1.513,2.363
		c0.851,0,1.376-0.637,1.453-1.598L123.41,142.662L123.41,142.662z M121.496,141.498c0.017-1.123,0.332-1.531,0.961-1.531
		s0.944,0.408,0.961,1.531H121.496L121.496,141.498z M127.618,144.157h0.68l1.598-6.068h-0.578l-1.351,5.491h-0.017l-1.351-5.491
		h-0.578L127.618,144.157L127.618,144.157z M130.263,143.053c0,0.85,0.466,1.206,1.155,1.206c0.459,0,0.901-0.229,1.157-0.73h0.017
		v0.628h0.458v-4.512h-0.509v3.034c0,0.697-0.408,1.157-0.986,1.157c-0.536,0-0.783-0.281-0.783-1.012v-3.179h-0.509V143.053
		L130.263,143.053z M134.071,144.157h0.509v-6.068h-0.509V144.157L134.071,144.157z M135.55,144.157h0.509v-1.581l0.671-0.799
		l1.343,2.38h0.629l-1.606-2.839l1.36-1.673h-0.629l-1.751,2.243h-0.017v-3.798h-0.509V144.157L135.55,144.157z M139.476,140.978
		c0-0.649,0.264-1.011,0.868-1.011c0.459,0,0.783,0.202,0.783,0.775c0,0.526-0.077,0.611-0.434,0.714l-0.961,0.272
		c-0.637,0.179-0.909,0.657-0.909,1.254c0,0.785,0.356,1.277,1.147,1.277c0.502,0,0.961-0.169,1.165-0.765h0.017v0.154
		c0,0.467,0.254,0.56,0.653,0.56c0.068,0,0.145-0.017,0.238-0.051v-0.373h-0.145c-0.179,0-0.264-0.119-0.264-0.375v-2.675
		c0-0.708-0.339-1.191-1.274-1.191c-0.952,0-1.394,0.517-1.394,1.435H139.476L139.476,140.978z M141.126,142.556
		c0,0.81-0.425,1.279-1.046,1.279c-0.442,0-0.714-0.358-0.714-0.887c0-0.537,0.264-0.802,0.774-0.938l0.425-0.111
		c0.204-0.051,0.493-0.145,0.544-0.299h0.017V142.556L141.126,142.556z M142.681,144.157h0.509v-3.035
		c0-0.697,0.399-1.156,0.995-1.156c0.519,0,0.774,0.306,0.774,0.926v3.264h0.509v-3.409c0-0.85-0.466-1.206-1.155-1.206
		c-0.459,0-0.902,0.229-1.157,0.729h-0.017v-0.627h-0.458V144.157L142.681,144.157z M148.784,140.341h-0.017
		c-0.162-0.51-0.561-0.798-1.055-0.798c-0.995,0-1.444,0.798-1.444,2.354c0,1.803,0.696,2.261,1.394,2.261
		c0.468,0,0.893-0.254,1.055-0.807h0.017v0.713c0,0.799-0.332,1.233-0.953,1.233c-0.451,0-0.851-0.255-0.851-0.681h-0.509
		c0.008,0.646,0.466,1.104,1.342,1.104c1.021,0,1.479-0.637,1.479-1.886v-4.19h-0.458V140.341L148.784,140.341z M146.811,141.846
		c0-1.437,0.357-1.879,0.961-1.879s0.961,0.442,0.961,1.879c0,1.445-0.357,1.888-0.961,1.888
		C147.168,143.733,146.811,143.291,146.811,141.846L146.811,141.846z M150.262,144.157h0.509v-2.822
		c0-0.875,0.527-1.283,1.088-1.283c0.076,0,0.161,0.008,0.246,0.025v-0.509c-0.059-0.017-0.119-0.025-0.178-0.025
		c-0.527,0-0.943,0.305-1.139,0.806h-0.017v-0.704h-0.509V144.157L150.262,144.157z M153.05,138.904h0.509v-0.866h-0.509V138.904
		L153.05,138.904z M154.325,138.904h0.509v-0.866h-0.509V138.904L154.325,138.904z M152.387,141.896c0,1.573,0.56,2.363,1.555,2.363
		s1.555-0.79,1.555-2.363c0-1.564-0.56-2.354-1.555-2.354C152.947,139.543,152.387,140.333,152.387,141.896L152.387,141.896z
		 M152.93,141.896c0-1.437,0.442-1.93,1.012-1.93c0.569,0,1.012,0.493,1.012,1.93c0,1.446-0.442,1.939-1.012,1.939
		C153.373,143.835,152.93,143.342,152.93,141.896L152.93,141.896z M157.674,142.194c0.451,0.179,0.612,0.434,0.612,0.833
		c0,0.502-0.349,0.808-0.893,0.808c-0.578,0-0.867-0.34-0.867-1.003v-0.119h-0.509v0.145c0,1.02,0.458,1.402,1.385,1.402
		c0.952,0,1.393-0.568,1.393-1.342c0-0.493-0.229-0.918-0.84-1.148l-0.74-0.28c-0.51-0.196-0.612-0.442-0.612-0.757
		c0-0.451,0.229-0.765,0.825-0.765c0.468,0,0.74,0.247,0.74,0.833v0.127h0.509V140.8c0-0.825-0.39-1.257-1.241-1.257
		c-0.766,0-1.342,0.373-1.342,1.299c0,0.451,0.229,0.825,0.866,1.072L157.674,142.194L157.674,142.194z M160.98,142.194
		c0.451,0.179,0.612,0.434,0.612,0.833c0,0.502-0.349,0.808-0.893,0.808c-0.579,0-0.868-0.34-0.868-1.003v-0.119h-0.509v0.145
		c0,1.02,0.458,1.402,1.385,1.402c0.953,0,1.394-0.568,1.394-1.342c0-0.493-0.229-0.918-0.841-1.148l-0.74-0.28
		c-0.51-0.196-0.612-0.442-0.612-0.757c0-0.451,0.229-0.765,0.825-0.765c0.468,0,0.74,0.247,0.74,0.833v0.127h0.509V140.8
		c0-0.825-0.39-1.257-1.24-1.257c-0.766,0-1.342,0.373-1.342,1.299c0,0.451,0.229,0.825,0.866,1.072L160.98,142.194L160.98,142.194z
		 M165.128,142.662c-0.085,0.791-0.417,1.174-0.953,1.174c-0.501,0-0.961-0.4-0.961-1.701v-0.212h2.465v-0.187
		c0-1.505-0.45-2.192-1.453-2.192c-0.995,0-1.555,0.79-1.555,2.354c0,1.701,0.56,2.363,1.513,2.363c0.851,0,1.376-0.637,1.453-1.598
		L165.128,142.662L165.128,142.662z M163.215,141.498c0.017-1.123,0.332-1.531,0.961-1.531c0.629,0,0.944,0.408,0.961,1.531H163.215
		L163.215,141.498z M166.48,144.157h0.509v-3.035c0-0.697,0.4-1.156,0.995-1.156c0.519,0,0.774,0.306,0.774,0.926v3.264h0.509
		v-3.409c0-0.85-0.467-1.206-1.155-1.206c-0.459,0-0.902,0.229-1.157,0.729h-0.017v-0.627h-0.458V144.157L166.48,144.157z
		 M170.492,140.766h0.577V139.9h-0.577V140.766L170.492,140.766z M170.492,144.157h0.577v-0.866h-0.577V144.157L170.492,144.157z"/>
	<path d="M47.439,122.157h0.917v-3.068c0-0.595,0.357-0.893,0.731-0.893c0.459,0,0.638,0.229,0.638,0.824v3.137h0.917v-3.451
		c0-0.926-0.442-1.24-1.138-1.24c-0.468,0-0.868,0.238-1.123,0.628l-0.025-0.017v-1.988h-0.917V122.157L47.439,122.157z
		 M51.119,118.264h0.629v2.84c0,0.935,0.306,1.104,0.926,1.104c0.289,0,0.544-0.025,0.739-0.076v-0.679
		c-0.085,0.017-0.195,0.026-0.332,0.026c-0.314,0-0.417-0.128-0.417-0.485v-2.729h0.748v-0.679h-0.748v-1.301h-0.917v1.301h-0.629
		L51.119,118.264L51.119,118.264z M53.482,118.264h0.629v2.84c0,0.935,0.306,1.104,0.925,1.104c0.289,0,0.544-0.025,0.74-0.076
		v-0.679c-0.085,0.017-0.196,0.026-0.332,0.026c-0.314,0-0.417-0.128-0.417-0.485v-2.729h0.748v-0.679h-0.748v-1.301H54.11v1.301
		h-0.629L53.482,118.264L53.482,118.264z M56.253,123.653h0.917v-2.031h0.017c0.17,0.408,0.544,0.654,1.038,0.654
		c0.629,0,1.41-0.425,1.41-2.346c0-1.573-0.424-2.464-1.47-2.464c-0.502,0-0.842,0.271-1.029,0.679h-0.017v-0.56h-0.866V123.653
		L56.253,123.653z M57.119,119.82c0-0.978,0.145-1.624,0.774-1.624c0.638,0,0.774,0.655,0.774,1.692
		c0,1.267-0.238,1.658-0.766,1.658C57.255,121.546,57.119,120.917,57.119,119.82L57.119,119.82z M60.435,118.927h0.968v-1.121
		h-0.968V118.927L60.435,118.927z M60.435,122.157h0.968v-1.121h-0.968V122.157L60.435,122.157z M61.854,122.276h0.756l1.929-6.306
		h-0.756L61.854,122.276L61.854,122.276z M64.371,122.276h0.756l1.929-6.306H66.3L64.371,122.276L64.371,122.276z M68.136,122.157
		h1.071l0.654-3.553h0.017l0.714,3.553h1.028l1.045-4.572h-0.918l-0.629,3.604h-0.017l-0.68-3.604h-1.037l-0.68,3.604h-0.017
		l-0.637-3.604h-0.952L68.136,122.157L68.136,122.157z M73.958,122.157h1.071l0.655-3.553H75.7l0.714,3.553h1.028l1.045-4.572H77.57
		l-0.629,3.604h-0.017l-0.68-3.604h-1.037l-0.68,3.604H74.51l-0.638-3.604H72.92L73.958,122.157L73.958,122.157z M79.781,122.157
		h1.071l0.654-3.553h0.017l0.714,3.553h1.028l1.045-4.572h-0.918l-0.629,3.604h-0.017l-0.68-3.604H81.03l-0.68,3.604h-0.017
		l-0.637-3.604h-0.952L79.781,122.157L79.781,122.157z M84.507,122.157h0.968v-1.121h-0.968V122.157L84.507,122.157z
		 M86.454,122.157h0.866v-0.56h0.017c0.119,0.297,0.349,0.679,1.003,0.679c1.071,0,1.496-0.892,1.496-2.465
		c0-2.031-0.713-2.345-1.41-2.345c-0.494,0-0.868,0.246-1.038,0.653h-0.017v-2.03h-0.917V122.157L86.454,122.157z M87.32,119.922
		c0-1.097,0.127-1.726,0.833-1.726c0.527,0,0.714,0.425,0.714,1.658c0,1.038-0.136,1.692-0.774,1.692
		C87.464,121.546,87.32,120.9,87.32,119.922L87.32,119.922z M92.88,122.157h0.866v-4.572h-0.917v3.196
		c0,0.51-0.357,0.765-0.749,0.765c-0.391,0-0.621-0.17-0.621-0.68v-3.281h-0.917v3.196c0,1.181,0.458,1.495,1.138,1.495
		c0.511,0,0.944-0.246,1.174-0.654h0.026V122.157L92.88,122.157z M94.682,122.549c0,0.374,0.153,1.172,1.512,1.172
		c1.233,0,1.708-0.67,1.708-1.785v-4.351h-0.866v0.56h-0.017c-0.085-0.331-0.468-0.679-1.003-0.679c-1.3,0-1.453,1.351-1.453,2.354
		c0,1.25,0.297,2.303,1.368,2.303c0.442,0,0.868-0.229,1.038-0.628h0.017v0.739c0,0.527-0.298,0.859-0.774,0.859
		c-0.408,0-0.664-0.264-0.664-0.544H94.682L94.682,122.549z M95.479,119.727c0-0.85,0.111-1.53,0.774-1.53
		c0.638,0,0.731,0.825,0.731,1.573c0,0.723-0.077,1.624-0.792,1.624C95.514,121.393,95.479,120.509,95.479,119.727L95.479,119.727z
		 M101.718,118.592c0-0.812-0.645-1.125-1.453-1.125c-1.207,0-1.606,0.535-1.606,1.512h0.866c0-0.446,0.085-0.884,0.698-0.884
		c0.485,0,0.629,0.266,0.629,0.688c0,0.401-0.204,0.494-0.536,0.587l-0.714,0.195c-0.62,0.204-1.062,0.416-1.062,1.433
		c0,0.873,0.458,1.281,1.189,1.281c0.536,0,0.894-0.221,1.14-0.671h0.017c0.025,0.441,0.365,0.603,0.772,0.603
		c0.178,0,0.34-0.059,0.45-0.11v-0.594c-0.034,0.017-0.093,0.025-0.153,0.025c-0.136,0-0.238-0.152-0.238-0.322L101.718,118.592
		L101.718,118.592z M100.853,120.512c0,0.67-0.272,1.085-0.825,1.085c-0.383,0-0.57-0.305-0.57-0.687c0-0.339,0.11-0.61,0.374-0.737
		c0.272-0.127,0.783-0.237,1.021-0.424V120.512L100.853,120.512z M102.654,122.157h0.917v-3.068c0-0.595,0.357-0.893,0.731-0.893
		c0.459,0,0.638,0.229,0.638,0.824v3.137h0.917v-3.451c0-0.926-0.441-1.24-1.138-1.24c-0.51,0-0.944,0.246-1.174,0.653h-0.025
		v-0.534h-0.866V122.157L102.654,122.157z M106.564,119.871c0,1.42,0.433,2.405,1.699,2.405c1.275,0,1.708-0.985,1.708-2.405
		s-0.374-2.405-1.708-2.405C106.938,117.466,106.564,118.451,106.564,119.871L106.564,119.871z M107.481,119.871
		c0-1.012,0.119-1.726,0.782-1.726c0.672,0,0.791,0.714,0.791,1.726c0,1.165-0.119,1.726-0.791,1.726
		C107.601,121.597,107.481,121.036,107.481,119.871L107.481,119.871z M110.62,122.157h0.968v-1.121h-0.968V122.157L110.62,122.157z
		 M114.785,120.492c0,0.688-0.187,1.113-0.697,1.105c-0.664,0-0.783-0.714-0.783-1.726c0-1.012,0.119-1.726,0.783-1.726
		c0.536-0.017,0.655,0.536,0.655,0.961h0.917c0-0.57-0.204-1.657-1.572-1.64c-1.326,0-1.7,0.985-1.7,2.405s0.374,2.405,1.7,2.405
		c1.13,0,1.504-0.688,1.563-1.784H114.785L114.785,120.492z M116.162,119.871c0,1.42,0.433,2.405,1.7,2.405
		c1.275,0,1.708-0.985,1.708-2.405s-0.373-2.405-1.708-2.405C116.536,117.466,116.162,118.451,116.162,119.871L116.162,119.871z
		 M117.079,119.871c0-1.012,0.119-1.726,0.783-1.726c0.672,0,0.791,0.714,0.791,1.726c0,1.165-0.119,1.726-0.791,1.726
		C117.198,121.597,117.079,121.036,117.079,119.871L117.079,119.871z M120.319,122.157h0.917v-3.068
		c0-0.595,0.357-0.893,0.723-0.893c0.383,0,0.562,0.229,0.562,0.824v3.137h0.917v-3.068c0-0.595,0.357-0.893,0.732-0.893
		c0.374,0,0.553,0.229,0.553,0.824v3.137h0.917v-3.477c0-0.883-0.467-1.214-1.113-1.214c-0.553,0-0.893,0.254-1.157,0.696
		c-0.136-0.382-0.407-0.696-1.062-0.696c-0.434,0-0.868,0.246-1.098,0.653h-0.025v-0.534h-0.866V122.157L120.319,122.157z
		 M126.039,122.276h0.756l1.929-6.306h-0.756L126.039,122.276L126.039,122.276z M129.804,122.157h1.071l0.654-3.553h0.017
		l0.714,3.553h1.028l1.045-4.572h-0.918l-0.629,3.604h-0.017l-0.68-3.604h-1.037l-0.68,3.604h-0.017l-0.637-3.604h-0.952
		L129.804,122.157L129.804,122.157z M138.083,119.99v-0.484c0-1.275-0.34-2.04-1.615-2.04c-1.436,0-1.691,1.274-1.691,2.473
		c0,2.117,0.925,2.337,1.674,2.337c0.995,0,1.606-0.637,1.606-1.649h-0.866c0,0.272-0.077,1.021-0.731,1.021
		c-0.689,0-0.766-0.783-0.766-1.395v-0.264L138.083,119.99L138.083,119.99z M135.694,119.362v-0.094
		c0-0.595,0.179-1.174,0.766-1.174c0.519,0,0.706,0.442,0.706,1.021v0.247H135.694L135.694,119.362z M138.84,122.157h0.917v-2.736
		c0-0.851,0.501-1.038,0.918-1.038c0.153,0,0.314,0.034,0.383,0.051V117.5c-0.06-0.017-0.119-0.034-0.221-0.034
		c-0.519,0-0.858,0.323-1.063,0.832h-0.017v-0.713h-0.917V122.157L138.84,122.157z M141.517,122.157h0.866v-0.56h0.017
		c0.119,0.297,0.349,0.679,1.003,0.679c1.071,0,1.496-0.892,1.496-2.465c0-2.031-0.713-2.345-1.411-2.345
		c-0.493,0-0.867,0.246-1.038,0.653h-0.017v-2.03h-0.917L141.517,122.157L141.517,122.157z M142.383,119.922
		c0-1.097,0.127-1.726,0.833-1.726c0.527,0,0.714,0.425,0.714,1.658c0,1.038-0.136,1.692-0.774,1.692
		C142.528,121.546,142.383,120.9,142.383,119.922L142.383,119.922z M148.784,119.99v-0.484c0-1.275-0.34-2.04-1.615-2.04
		c-1.436,0-1.691,1.274-1.691,2.473c0,2.117,0.926,2.337,1.674,2.337c0.995,0,1.606-0.637,1.606-1.649h-0.866
		c0,0.272-0.076,1.021-0.731,1.021c-0.689,0-0.766-0.783-0.766-1.395v-0.264L148.784,119.99L148.784,119.99z M146.395,119.362
		v-0.094c0-0.595,0.179-1.174,0.766-1.174c0.519,0,0.706,0.442,0.706,1.021v0.247H146.395L146.395,119.362z M149.592,122.549
		c0,0.374,0.153,1.172,1.512,1.172c1.232,0,1.708-0.67,1.708-1.785v-4.351h-0.866v0.56h-0.017c-0.085-0.331-0.468-0.679-1.004-0.679
		c-1.3,0-1.453,1.351-1.453,2.354c0,1.25,0.297,2.303,1.368,2.303c0.442,0,0.868-0.229,1.038-0.628h0.017v0.739
		c0,0.527-0.297,0.859-0.774,0.859c-0.408,0-0.664-0.264-0.664-0.544H149.592L149.592,122.549z M150.39,119.727
		c0-0.85,0.11-1.53,0.774-1.53c0.638,0,0.731,0.825,0.731,1.573c0,0.723-0.077,1.624-0.791,1.624
		C150.424,121.393,150.39,120.509,150.39,119.727L150.39,119.727z M156.808,119.99v-0.484c0-1.275-0.34-2.04-1.615-2.04
		c-1.436,0-1.691,1.274-1.691,2.473c0,2.117,0.925,2.337,1.674,2.337c0.995,0,1.606-0.637,1.606-1.649h-0.866
		c0,0.272-0.077,1.021-0.731,1.021c-0.689,0-0.766-0.783-0.766-1.395v-0.264L156.808,119.99L156.808,119.99z M154.419,119.362
		v-0.094c0-0.595,0.179-1.174,0.766-1.174c0.519,0,0.706,0.442,0.706,1.021v0.247H154.419L154.419,119.362z M160.403,118.919v-0.204
		c0-0.57-0.263-1.249-1.427-1.249c-0.944,0-1.563,0.399-1.563,1.257c0,0.731,0.289,1.08,0.977,1.318l0.749,0.263
		c0.323,0.111,0.502,0.332,0.502,0.672c0,0.417-0.247,0.672-0.749,0.672c-0.527,0-0.715-0.289-0.715-0.816v-0.145h-0.815v0.17
		c0,0.884,0.348,1.419,1.504,1.419c0.927,0,1.64-0.416,1.64-1.393c0-0.723-0.314-1.088-0.993-1.318l-0.587-0.204
		c-0.485-0.17-0.646-0.315-0.646-0.672c0-0.425,0.29-0.595,0.655-0.595c0.476,0,0.604,0.34,0.604,0.706v0.119H160.403
		L160.403,118.919z M163.404,120.492c0,0.688-0.187,1.113-0.697,1.105c-0.664,0-0.783-0.714-0.783-1.726
		c0-1.012,0.119-1.726,0.783-1.726c0.536-0.017,0.655,0.536,0.655,0.961h0.917c0-0.57-0.204-1.657-1.572-1.64
		c-1.326,0-1.7,0.985-1.7,2.405s0.374,2.405,1.7,2.405c1.13,0,1.504-0.688,1.563-1.784H163.404L163.404,120.492z M164.91,122.157
		h0.917v-3.068c0-0.595,0.357-0.893,0.731-0.893c0.459,0,0.638,0.229,0.638,0.824v3.137h0.917v-3.451c0-0.926-0.441-1.24-1.138-1.24
		c-0.468,0-0.868,0.238-1.123,0.628l-0.025-0.017v-1.988h-0.917V122.157L164.91,122.157z M172.176,119.99v-0.484
		c0-1.275-0.339-2.04-1.614-2.04c-1.437,0-1.691,1.274-1.691,2.473c0,2.117,0.925,2.337,1.674,2.337
		c0.995,0,1.606-0.637,1.606-1.649h-0.866c0,0.272-0.076,1.021-0.731,1.021c-0.689,0-0.765-0.783-0.765-1.395v-0.264L172.176,119.99
		L172.176,119.99z M169.788,119.362v-0.094c0-0.595,0.178-1.174,0.765-1.174c0.519,0,0.706,0.442,0.706,1.021v0.247H169.788
		L169.788,119.362z M172.934,122.157h0.917v-3.068c0-0.595,0.357-0.893,0.731-0.893c0.459,0,0.638,0.229,0.638,0.824v3.137h0.917
		v-3.451c0-0.926-0.441-1.24-1.138-1.24c-0.51,0-0.944,0.246-1.174,0.653H173.8v-0.534h-0.866V122.157L172.934,122.157z
		 M177.022,122.157h0.917v-1.451l0.519-0.627l1.122,2.078h1.003l-1.556-2.808l1.377-1.764l-1.063,0.008l-1.386,1.909h-0.017v-3.413
		h-0.917L177.022,122.157L177.022,122.157z M184.086,119.99v-0.484c0-1.275-0.339-2.04-1.614-2.04c-1.437,0-1.691,1.274-1.691,2.473
		c0,2.117,0.926,2.337,1.674,2.337c0.995,0,1.606-0.637,1.606-1.649h-0.866c0,0.272-0.077,1.021-0.731,1.021
		c-0.689,0-0.766-0.783-0.766-1.395v-0.264L184.086,119.99L184.086,119.99z M181.697,119.362v-0.094
		c0-0.595,0.179-1.174,0.766-1.174c0.519,0,0.706,0.442,0.706,1.021v0.247H181.697L181.697,119.362z"/>
	<path d="M47.524,111.157h0.543v-5.559h0.017l1.573,5.559h0.51l1.573-5.559h0.017v5.559H52.3v-6.068h-0.892l-1.462,5.389h-0.017
		l-1.462-5.389h-0.942L47.524,111.157L47.524,111.157z M55.59,109.662c-0.085,0.791-0.417,1.174-0.953,1.174
		c-0.502,0-0.961-0.4-0.961-1.701v-0.212h2.465v-0.187c0-1.505-0.449-2.192-1.453-2.192c-0.995,0-1.555,0.79-1.555,2.354
		c0,1.701,0.56,2.363,1.513,2.363c0.85,0,1.376-0.637,1.453-1.598L55.59,109.662L55.59,109.662z M53.677,108.498
		c0.017-1.123,0.332-1.531,0.961-1.531c0.629,0,0.944,0.408,0.961,1.531H53.677L53.677,108.498z M56.942,111.157h0.509v-3.035
		c0-0.697,0.4-1.156,0.995-1.156c0.519,0,0.774,0.306,0.774,0.926v3.264h0.509v-3.409c0-0.85-0.466-1.206-1.155-1.206
		c-0.536,0-0.978,0.271-1.105,0.729h-0.017v-2.183h-0.509L56.942,111.157L56.942,111.157z M60.716,111.157h0.509v-2.822
		c0-0.875,0.527-1.283,1.088-1.283c0.077,0,0.162,0.008,0.247,0.025v-0.509c-0.06-0.017-0.119-0.025-0.179-0.025
		c-0.527,0-0.943,0.305-1.139,0.806h-0.017v-0.704h-0.509V111.157L60.716,111.157z M65.135,111.157h0.543v-6.068h-0.543V111.157
		L65.135,111.157z M66.683,111.157h0.509v-3.035c0-0.697,0.399-1.156,0.995-1.156c0.519,0,0.774,0.306,0.774,0.926v3.264h0.509
		v-3.409c0-0.85-0.466-1.206-1.155-1.206c-0.459,0-0.901,0.229-1.157,0.729h-0.017v-0.627h-0.458V111.157L66.683,111.157z
		 M70.644,111.157h0.509v-4.088h0.799v-0.424h-0.799v-0.536c0-0.519,0.178-0.664,0.552-0.664c0.094,0,0.17,0.008,0.247,0.025v-0.424
		c-0.093-0.017-0.17-0.025-0.323-0.025c-0.858,0-0.985,0.466-0.985,1.087v0.536h-0.621v0.424h0.621V111.157L70.644,111.157z
		 M72.3,108.896c0,1.573,0.56,2.363,1.555,2.363s1.555-0.79,1.555-2.363c0-1.564-0.56-2.354-1.555-2.354S72.3,107.333,72.3,108.896
		L72.3,108.896z M72.843,108.896c0-1.437,0.442-1.93,1.012-1.93s1.012,0.493,1.012,1.93c0,1.446-0.442,1.939-1.012,1.939
		S72.843,110.342,72.843,108.896L72.843,108.896z M76.159,111.157h0.509v-2.822c0-0.875,0.527-1.283,1.088-1.283
		c0.077,0,0.162,0.008,0.247,0.025v-0.509c-0.06-0.017-0.119-0.025-0.179-0.025c-0.527,0-0.943,0.305-1.139,0.806h-0.017v-0.704
		h-0.509V111.157L76.159,111.157z M78.556,111.157h0.509v-3.035c0-0.697,0.408-1.156,0.918-1.156c0.459,0,0.706,0.28,0.706,0.816
		v3.375h0.509v-3.035c0-0.697,0.408-1.156,0.919-1.156c0.459,0,0.706,0.28,0.706,0.816v3.375h0.509v-3.451
		c0-0.807-0.416-1.163-1.045-1.163c-0.579,0-0.944,0.288-1.148,0.789h-0.017c-0.068-0.458-0.399-0.789-0.943-0.789
		c-0.502,0-0.91,0.229-1.148,0.729h-0.017v-0.627h-0.458V111.157L78.556,111.157z M84.768,107.978c0-0.649,0.264-1.011,0.868-1.011
		c0.459,0,0.783,0.202,0.783,0.775c0,0.526-0.077,0.611-0.434,0.714l-0.961,0.272c-0.637,0.179-0.909,0.657-0.909,1.254
		c0,0.785,0.356,1.277,1.147,1.277c0.502,0,0.961-0.169,1.165-0.765h0.017v0.154c0,0.467,0.254,0.56,0.653,0.56
		c0.068,0,0.145-0.017,0.238-0.051v-0.373H87.19c-0.179,0-0.264-0.119-0.264-0.375v-2.675c0-0.708-0.339-1.191-1.274-1.191
		c-0.953,0-1.394,0.517-1.394,1.435H84.768L84.768,107.978z M86.418,109.556c0,0.81-0.425,1.279-1.046,1.279
		c-0.442,0-0.714-0.358-0.714-0.887c0-0.537,0.264-0.802,0.774-0.938l0.425-0.111c0.204-0.051,0.493-0.145,0.544-0.299h0.017
		V109.556L86.418,109.556z M88.194,110.418c0,0.603,0.263,0.79,0.951,0.79c0.17,0,0.297-0.017,0.357-0.051v-0.424
		c-0.11,0.034-0.212,0.051-0.314,0.051c-0.332,0-0.484-0.119-0.484-0.476v-3.239h0.799v-0.424h-0.799v-1.25h-0.509v1.25h-0.621
		v0.424h0.621L88.194,110.418L88.194,110.418z M90.089,111.157h0.509v-4.512h-0.509V111.157L90.089,111.157z M90.089,105.955h0.509
		v-0.866h-0.509V105.955L90.089,105.955z M91.381,108.896c0,1.573,0.56,2.363,1.555,2.363s1.555-0.79,1.555-2.363
		c0-1.564-0.56-2.354-1.555-2.354C91.941,106.543,91.381,107.333,91.381,108.896L91.381,108.896z M91.924,108.896
		c0-1.437,0.442-1.93,1.012-1.93s1.012,0.493,1.012,1.93c0,1.446-0.442,1.939-1.012,1.939S91.924,110.342,91.924,108.896
		L91.924,108.896z M95.24,111.157h0.509v-3.035c0-0.697,0.4-1.156,0.995-1.156c0.519,0,0.774,0.306,0.774,0.926v3.264h0.509v-3.409
		c0-0.85-0.467-1.206-1.155-1.206c-0.459,0-0.902,0.229-1.157,0.729h-0.017v-0.627H95.24V111.157L95.24,111.157z M101.284,109.662
		c-0.085,0.791-0.417,1.174-0.953,1.174c-0.501,0-0.961-0.4-0.961-1.701v-0.212h2.465v-0.187c0-1.505-0.45-2.192-1.453-2.192
		c-0.995,0-1.555,0.79-1.555,2.354c0,1.701,0.56,2.363,1.513,2.363c0.851,0,1.376-0.637,1.453-1.598L101.284,109.662
		L101.284,109.662z M99.37,108.498c0.017-1.123,0.332-1.531,0.961-1.531s0.944,0.408,0.961,1.531H99.37L99.37,108.498z
		 M102.635,111.157h0.509v-3.035c0-0.697,0.4-1.156,0.995-1.156c0.519,0,0.774,0.306,0.774,0.926v3.264h0.509v-3.409
		c0-0.85-0.466-1.206-1.155-1.206c-0.459,0-0.901,0.229-1.156,0.729h-0.017v-0.627h-0.458v4.514H102.635z M108.109,111.157h2.685
		v-0.424h-2.142l2.142-3.665v-0.424h-2.575v0.424h2.032l-2.142,3.665V111.157L108.109,111.157z M111.441,110.053
		c0,0.85,0.466,1.206,1.155,1.206c0.459,0,0.901-0.229,1.157-0.73h0.017v0.628h0.458v-4.512h-0.509v3.034
		c0,0.698-0.408,1.157-0.986,1.157c-0.536,0-0.783-0.281-0.783-1.012v-3.179h-0.509V110.053L111.441,110.053z M119.635,111.157
		h0.458v-6.068h-0.509v2.234h-0.017c-0.111-0.476-0.494-0.781-1.055-0.781c-0.995,0-1.444,0.798-1.444,2.354
		c0,1.565,0.449,2.363,1.444,2.363c0.536,0,0.969-0.331,1.105-0.849h0.017L119.635,111.157L119.635,111.157z M117.61,108.896
		c0-1.666,0.477-1.93,0.987-1.93c0.519,0,0.986,0.264,0.986,1.93c0,1.675-0.468,1.939-0.986,1.939
		C118.087,110.835,117.61,110.572,117.61,108.896L117.61,108.896z M123.298,109.662c-0.085,0.791-0.417,1.174-0.952,1.174
		c-0.502,0-0.961-0.4-0.961-1.701v-0.212h2.465v-0.187c0-1.505-0.45-2.192-1.453-2.192c-0.995,0-1.555,0.79-1.555,2.354
		c0,1.701,0.56,2.363,1.513,2.363c0.851,0,1.376-0.637,1.453-1.598L123.298,109.662L123.298,109.662z M121.384,108.498
		c0.017-1.123,0.332-1.531,0.961-1.531c0.629,0,0.944,0.408,0.961,1.531H121.384L121.384,108.498z M124.649,111.157h0.509v-3.035
		c0-0.697,0.4-1.156,0.995-1.156c0.519,0,0.774,0.306,0.774,0.926v3.264h0.509v-3.409c0-0.85-0.467-1.206-1.155-1.206
		c-0.459,0-0.902,0.229-1.157,0.729h-0.017v-0.627h-0.458V111.157L124.649,111.157z M130.446,111.157h3.084v-0.458h-2.542v-2.483
		h2.303v-0.458h-2.303v-2.211h2.465v-0.458h-3.008L130.446,111.157L130.446,111.157z M134.424,111.157h0.509v-4.088h0.799v-0.424
		h-0.799v-0.536c0-0.519,0.178-0.664,0.552-0.664c0.094,0,0.17,0.008,0.247,0.025v-0.424c-0.093-0.017-0.17-0.025-0.323-0.025
		c-0.858,0-0.985,0.466-0.985,1.087v0.536h-0.621v0.424h0.621V111.157L134.424,111.157z M136.506,111.157h0.509v-4.088h0.799v-0.424
		h-0.799v-0.536c0-0.519,0.179-0.664,0.553-0.664c0.093,0,0.17,0.008,0.247,0.025v-0.424c-0.094-0.017-0.17-0.025-0.323-0.025
		c-0.858,0-0.985,0.466-0.985,1.087v0.536h-0.621v0.424h0.621L136.506,111.157L136.506,111.157z M140.637,109.662
		c-0.085,0.791-0.417,1.174-0.953,1.174c-0.501,0-0.961-0.4-0.961-1.701v-0.212h2.465v-0.187c0-1.505-0.449-2.192-1.453-2.192
		c-0.995,0-1.555,0.79-1.555,2.354c0,1.701,0.56,2.363,1.513,2.363c0.85,0,1.376-0.637,1.453-1.598L140.637,109.662L140.637,109.662
		z M138.723,108.498c0.017-1.123,0.332-1.531,0.961-1.531s0.944,0.408,0.961,1.531H138.723L138.723,108.498z M141.937,111.157h0.509
		v-1.581l0.671-0.799l1.343,2.38h0.629l-1.606-2.839l1.36-1.673h-0.629l-1.751,2.243h-0.017v-3.798h-0.509V111.157L141.937,111.157z
		 M145.635,110.418c0,0.603,0.263,0.79,0.951,0.79c0.17,0,0.297-0.017,0.357-0.051v-0.424c-0.111,0.034-0.213,0.051-0.315,0.051
		c-0.331,0-0.484-0.119-0.484-0.476v-3.239h0.799v-0.424h-0.799v-1.25h-0.509v1.25h-0.621v0.424h0.621V110.418L145.635,110.418z
		 M149.766,109.662c-0.085,0.791-0.417,1.174-0.953,1.174c-0.501,0-0.961-0.4-0.961-1.701v-0.212h2.465v-0.187
		c0-1.505-0.449-2.192-1.453-2.192c-0.995,0-1.555,0.79-1.555,2.354c0,1.701,0.56,2.363,1.513,2.363c0.85,0,1.376-0.637,1.453-1.598
		L149.766,109.662L149.766,109.662z M147.852,108.498c0.017-1.123,0.332-1.531,0.961-1.531s0.944,0.408,0.961,1.531H147.852
		L147.852,108.498z M151.117,111.157h0.509v-3.035c0-0.697,0.4-1.156,0.995-1.156c0.519,0,0.774,0.306,0.774,0.926v3.264h0.509
		v-3.409c0-0.85-0.467-1.206-1.155-1.206c-0.459,0-0.902,0.229-1.157,0.729h-0.017v-0.627h-0.458V111.157L151.117,111.157z
		 M155.129,107.766h0.577V106.9h-0.577V107.766L155.129,107.766z M155.129,111.157h0.577v-0.866h-0.577V111.157L155.129,111.157z"/>
	<path d="M54.042,75.043v0.247c0,2.756-0.875,4.175-2.458,4.175c-1.683,0-2.706-1.386-2.706-5.198s1.023-5.197,2.706-5.197
		c1.551,0,2.326,1.188,2.326,2.607h1.056c-0.132-2.029-1.139-3.498-3.382-3.498c-2.409,0-3.762,1.864-3.762,6.088
		s1.353,6.088,3.762,6.088c1.171,0,2.228-0.841,2.59-2.145h0.033v1.947h0.825v-6.006h-3.778v0.891L54.042,75.043L54.042,75.043z
		 M56.813,80.158h0.99V74.68c0-1.699,1.023-2.491,2.112-2.491c0.148,0,0.313,0.016,0.479,0.049v-0.99
		c-0.115-0.033-0.231-0.049-0.346-0.049c-1.023,0-1.832,0.594-2.211,1.567h-0.033v-1.369h-0.99L56.813,80.158L56.813,80.158z
		 M62.226,69.961h0.99v-1.683h-0.99V69.961L62.226,69.961z M64.701,69.961h0.99v-1.683h-0.99V69.961L64.701,69.961z M60.938,75.769
		c0,3.053,1.089,4.587,3.02,4.587s3.02-1.534,3.02-4.587c0-3.036-1.089-4.57-3.02-4.57C62.028,71.198,60.938,72.733,60.938,75.769
		L60.938,75.769z M61.995,75.769c0-2.788,0.858-3.745,1.963-3.745s1.964,0.957,1.964,3.745c0,2.805-0.858,3.762-1.964,3.762
		S61.995,78.574,61.995,75.769L61.995,75.769z M71.202,76.346c0.875,0.347,1.188,0.841,1.188,1.617c0,0.974-0.677,1.567-1.732,1.567
		c-1.122,0-1.683-0.66-1.683-1.947v-0.231h-0.99v0.281c0,1.98,0.891,2.722,2.69,2.722c1.848,0,2.706-1.105,2.706-2.607
		c0-0.957-0.445-1.782-1.633-2.227l-1.436-0.545c-0.99-0.379-1.188-0.858-1.188-1.468c0-0.875,0.445-1.485,1.601-1.485
		c0.907,0,1.436,0.479,1.436,1.617v0.248h0.99V73.64c0-1.601-0.759-2.442-2.409-2.442c-1.485,0-2.607,0.726-2.607,2.524
		c0,0.875,0.445,1.601,1.683,2.079L71.202,76.346L71.202,76.346z M77.62,76.346c0.874,0.347,1.188,0.841,1.188,1.617
		c0,0.974-0.676,1.567-1.732,1.567c-1.122,0-1.683-0.66-1.683-1.947v-0.231h-0.99v0.281c0,1.98,0.891,2.722,2.689,2.722
		c1.848,0,2.706-1.105,2.706-2.607c0-0.957-0.445-1.782-1.633-2.227l-1.436-0.545c-0.99-0.379-1.188-0.858-1.188-1.468
		c0-0.875,0.445-1.485,1.601-1.485c0.907,0,1.436,0.479,1.436,1.617v0.248h0.99V73.64c0-1.601-0.759-2.442-2.409-2.442
		c-1.485,0-2.607,0.726-2.607,2.524c0,0.875,0.446,1.601,1.683,2.079L77.62,76.346L77.62,76.346z M85.672,77.254
		c-0.165,1.534-0.809,2.277-1.848,2.277c-0.974,0-1.864-0.775-1.864-3.3v-0.412h4.785v-0.363c0-2.92-0.875-4.257-2.821-4.257
		c-1.931,0-3.02,1.535-3.02,4.57c0,3.3,1.089,4.587,2.937,4.587c1.65,0,2.673-1.237,2.821-3.102H85.672L85.672,77.254z
		 M81.959,74.993c0.033-2.178,0.643-2.97,1.864-2.97c1.221,0,1.832,0.792,1.865,2.97H81.959L81.959,74.993z M98.344,71.215
		c-0.033-1.601-1.007-2.739-2.854-2.739c-2.805,0-3.564,2.426-3.564,6.254c0,3.679,0.775,5.626,3.416,5.626
		c2.244,0,3.25-1.782,3.25-3.993c0-2.145-1.039-3.63-3.069-3.63c-1.237,0-2.128,0.709-2.508,1.914l-0.033-0.033
		c0.05-3.861,0.842-5.313,2.458-5.313c1.155,0,1.799,0.775,1.848,1.914H98.344L98.344,71.215z M93.179,76.544
		c0-1.501,0.577-2.987,2.178-2.987c1.617,0,2.178,1.485,2.178,2.987s-0.561,2.986-2.178,2.986
		C93.756,79.531,93.179,78.046,93.179,76.544L93.179,76.544z"/>
	<path d="M47.92,64.158h1.056v-4.125l1.402-1.848l3.531,5.973h1.122l-3.993-6.864l3.597-4.917h-1.122l-4.504,6.171h-0.033v-6.171
		H47.92V64.158L47.92,64.158z M55.873,62.013c0,1.65,0.908,2.343,2.244,2.343c0.891,0,1.749-0.445,2.244-1.419h0.033v1.221h0.891
		v-8.761h-0.99v5.89c0,1.353-0.792,2.244-1.914,2.244c-1.04,0-1.518-0.544-1.518-1.963v-6.171h-0.99V62.013L55.873,62.013z
		 M63.199,64.158h0.99v-5.891c0-1.353,0.775-2.244,1.931-2.244c1.006,0,1.501,0.594,1.501,1.798v6.336h0.99v-6.616
		c0-1.65-0.907-2.343-2.244-2.343c-0.891,0-1.749,0.445-2.244,1.419H64.09v-1.221h-0.891V64.158L63.199,64.158z M75.145,64.158
		h0.891V52.377h-0.99v4.339h-0.033c-0.214-0.924-0.957-1.518-2.046-1.518c-1.931,0-2.805,1.551-2.805,4.57
		c0,3.036,0.875,4.587,2.805,4.587c1.04,0,1.881-0.643,2.145-1.65h0.033V64.158L75.145,64.158z M71.218,59.769
		c0-3.234,0.924-3.745,1.914-3.745c1.006,0,1.914,0.511,1.914,3.745c0,3.25-0.908,3.762-1.914,3.762
		C72.142,63.531,71.218,63.019,71.218,59.769L71.218,59.769z M82.256,61.254c-0.165,1.534-0.809,2.277-1.848,2.277
		c-0.974,0-1.865-0.775-1.865-3.3v-0.412h4.785v-0.363c0-2.92-0.875-4.257-2.822-4.257c-1.93,0-3.02,1.535-3.02,4.57
		c0,3.3,1.089,4.587,2.938,4.587c1.649,0,2.673-1.237,2.821-3.102H82.256L82.256,61.254z M78.543,58.993
		c0.033-2.178,0.644-2.97,1.865-2.97c1.221,0,1.832,0.792,1.864,2.97H78.543L78.543,58.993z M84.879,64.158h0.99v-5.891
		c0-1.353,0.775-2.244,1.93-2.244c1.006,0,1.501,0.594,1.501,1.798v6.336h0.99v-6.616c0-1.65-0.908-2.343-2.244-2.343
		c-0.891,0-1.749,0.445-2.244,1.419h-0.033v-1.221h-0.891L84.879,64.158L84.879,64.158z M93.806,64.158h1.122l2.31-8.761h-1.056
		L94.4,63.036h-0.033l-1.947-7.639h-1.056L93.806,64.158L93.806,64.158z M98.31,62.013c0,1.65,0.908,2.343,2.244,2.343
		c0.891,0,1.749-0.445,2.244-1.419h0.033v1.221h0.891v-8.761h-0.99v5.89c0,1.353-0.792,2.244-1.914,2.244
		c-1.04,0-1.518-0.544-1.518-1.963v-6.171h-0.99V62.013L98.31,62.013z M105.702,64.158h0.99V52.377h-0.99V64.158L105.702,64.158z
		 M108.573,64.158h0.99v-3.069l1.304-1.551l2.607,4.62h1.221l-3.119-5.511l2.64-3.25h-1.221l-3.399,4.355h-0.033v-7.375h-0.99
		V64.158L108.573,64.158z M116.196,58.003c0-1.271,0.511-1.98,1.683-1.98c0.891,0,1.518,0.396,1.518,1.518
		c0,1.023-0.148,1.188-0.841,1.386l-1.864,0.528c-1.238,0.347-1.766,1.271-1.766,2.426c0,1.518,0.693,2.475,2.228,2.475
		c0.973,0,1.864-0.33,2.26-1.485h0.033v0.297c0,0.907,0.495,1.089,1.271,1.089c0.132,0,0.28-0.033,0.462-0.099v-0.726h-0.281
		c-0.346,0-0.511-0.231-0.511-0.726v-5.181c0-1.386-0.66-2.327-2.475-2.327c-1.848,0-2.706,1.006-2.706,2.805H116.196
		L116.196,58.003z M119.396,61.056c0,1.567-0.825,2.475-2.029,2.475c-0.858,0-1.386-0.693-1.386-1.716
		c0-1.039,0.512-1.551,1.502-1.814l0.825-0.215c0.396-0.099,0.957-0.28,1.056-0.578h0.033L119.396,61.056L119.396,61.056z
		 M122.416,64.158h0.99v-5.891c0-1.353,0.775-2.244,1.93-2.244c1.007,0,1.501,0.594,1.501,1.798v6.336h0.99v-6.616
		c0-1.65-0.908-2.343-2.244-2.343c-0.891,0-1.749,0.445-2.244,1.419h-0.033v-1.221h-0.891L122.416,64.158L122.416,64.158z
		 M134.147,61.254c-0.165,1.534-0.809,2.277-1.848,2.277c-0.974,0-1.865-0.775-1.865-3.3v-0.412h4.785v-0.363
		c0-2.92-0.875-4.257-2.821-4.257c-1.931,0-3.02,1.535-3.02,4.57c0,3.3,1.089,4.587,2.937,4.587c1.65,0,2.673-1.237,2.821-3.102
		H134.147L134.147,61.254z M130.435,58.993c0.033-2.178,0.644-2.97,1.865-2.97c1.221,0,1.832,0.792,1.864,2.97H130.435
		L130.435,58.993z"/>
</g>
</svg>
